<?xml version="1.0" encoding="UTF-8"?>
<svg width="14px" height="14px" viewBox="0 0 14 14" version="1.1" xmlns="http://www.w3.org/2000/svg" xmlns:xlink="http://www.w3.org/1999/xlink">
    <title>Celander-for dark</title>
    <g id="Celander-for-dark" stroke="none" stroke-width="1" fill="none" fill-rule="evenodd">
        <rect id="Rectangle-5" fill="#A4A9B3" x="10" y="0" width="1" height="4"></rect>
        <rect id="Rectangle-27" fill="#A4A9B3" x="3" y="0" width="1" height="4"></rect>
        <path d="M8.5,13 C9.16666667,12.3333333 9.5,11.1666667 9.5,9.5 L9.61943,9.5298575 C11.2927741,9.94819352 12.9884159,8.93080847 13.4067519,7.25746437 C13.4686835,7.00973775 13.5,6.75535076 13.5,6.5 L13.5,3.5 C13.5,2.94771525 13.0522847,2.5 12.5,2.5 L1.5,2.5 C0.94771525,2.5 0.5,2.94771525 0.5,3.5 L0.5,12.5 C0.5,13.0522847 0.94771525,13.5 1.5,13.5 L12.5,13.5 C13.0522847,13.5 13.5,13.0522847 13.5,12.5 L13.5,10.5 L13.5,10.5" id="Path-8" stroke="#A4A9B3" stroke-linecap="round" stroke-linejoin="round"></path>
        <rect id="Rectangle-28" fill="#A4A9B3" x="1" y="6" width="11" height="1"></rect>
        <rect id="Rectangle-28-Copy-2" fill="#A4A9B3" x="0.5" y="2.5" width="13" height="1.5"></rect>
        <rect id="Rectangle-28-Copy" fill="#A4A9B3" x="1" y="9" width="7" height="1"></rect>
        <rect id="Rectangle-29" fill="#A4A9B3" x="3" y="5" width="1" height="7"></rect>
        <rect id="Rectangle-29-Copy" fill="#A4A9B3" x="6" y="5" width="1" height="7"></rect>
        <rect id="Rectangle-29-Copy-2" fill="#A4A9B3" x="9" y="5" width="1" height="3"></rect>
    </g>
</svg>