<?xml version="1.0" encoding="UTF-8"?>
<svg width="16px" height="16px" viewBox="0 0 16 16" version="1.1" xmlns="http://www.w3.org/2000/svg" xmlns:xlink="http://www.w3.org/1999/xlink">
    <title>Checkbox - for dark</title>
    <g id="Checkbox---for-dark" stroke="none" stroke-width="1" fill="none" fill-rule="evenodd">
        <path d="M13,0 C14.6568542,-3.04359188e-16 16,1.34314575 16,3 L16,13 C16,14.6568542 14.6568542,16 13,16 L3,16 C1.34314575,16 2.02906125e-16,14.6568542 0,13 L0,3 C-2.02906125e-16,1.34314575 1.34314575,3.04359188e-16 3,0 L13,0 Z M12.7071068,5.29289322 C12.3165825,4.90236893 11.6834175,4.90236893 11.2928932,5.29289322 L11.2928932,5.29289322 L7,9.58578644 L4.70710678,7.29289322 C4.31658249,6.90236893 3.68341751,6.90236893 3.29289322,7.29289322 C2.90236893,7.68341751 2.90236893,8.31658249 3.29289322,8.70710678 L3.29289322,8.70710678 L6.29289322,11.7071068 C6.48815536,11.9023689 6.74407768,12 7,12 C7.25592232,12 7.51184464,11.9023689 7.70710678,11.7071068 L7.70710678,11.7071068 L12.7071068,6.70710678 C13.0976311,6.31658249 13.0976311,5.68341751 12.7071068,5.29289322 Z" id="Combined-Shape" fill="#34C3FF"></path>
    </g>
</svg>