<?xml version="1.0" encoding="UTF-8"?>
<svg width="16px" height="16px" viewBox="0 0 16 16" version="1.1" xmlns="http://www.w3.org/2000/svg" xmlns:xlink="http://www.w3.org/1999/xlink">
    <title>copy-for dark</title>
    <g id="copy-for-dark" stroke="none" stroke-width="1" fill="none" fill-rule="evenodd">
        <path d="M13,12 L13,11 L14,11 C14.5522847,11 15,10.5522847 15,10 L15,2 C15,1.44771525 14.5522847,1 14,1 L6,1 C5.44771525,1 5,1.44771525 5,2 L5,3 L4,3 L4,2 C4,0.8954305 4.8954305,0 6,0 L14,0 C15.1045695,0 16,0.8954305 16,2 L16,10 C16,11.1045695 15.1045695,12 14,12 L13,12 Z M13,12 L13,11 L14,11 C14.5522847,11 15,10.5522847 15,10 L15,2 C15,1.44771525 14.5522847,1 14,1 L6,1 C5.44771525,1 5,1.44771525 5,2 L5,3 L4,3 L4,2 C4,0.8954305 4.8954305,0 6,0 L14,0 C15.1045695,0 16,0.8954305 16,2 L16,10 C16,11.1045695 15.1045695,12 14,12 L13,12 Z" id="Rectangle-15-Copy" fill="#E9EBF0" fill-rule="nonzero"></path>
        <path d="M2,5 C1.44771525,5 1,5.44771525 1,6 L1,14 C1,14.5522847 1.44771525,15 2,15 L10,15 C10.5522847,15 11,14.5522847 11,14 L11,6 C11,5.44771525 10.5522847,5 10,5 L2,5 Z M2,4 L10,4 C11.1045695,4 12,4.8954305 12,6 L12,14 C12,15.1045695 11.1045695,16 10,16 L2,16 C0.8954305,16 0,15.1045695 0,14 L0,6 C0,4.8954305 0.8954305,4 2,4 Z" id="Rectangle-15" fill="#E9EBF0" fill-rule="nonzero"></path>
    </g>
</svg>