<?xml version="1.0" encoding="UTF-8"?>
<svg width="12px" height="12px" viewBox="0 0 12 12" version="1.1" xmlns="http://www.w3.org/2000/svg" xmlns:xlink="http://www.w3.org/1999/xlink">
    <!-- Generator: Sketch 64 (93537) - https://sketch.com -->
    <title>OK Copy 6</title>
    <desc>Created with Sketch.</desc>
    <g id="OK-Copy-6" stroke="none" stroke-width="1" fill="none" fill-rule="evenodd">
        <path d="M6,0 C9.3137085,0 12,2.6862915 12,6 C12,9.3137085 9.3137085,12 6,12 C2.6862915,12 0,9.3137085 0,6 C0,2.6862915 2.6862915,0 6,0 Z M9.80330086,3.35355339 C9.41277657,2.9630291 8.77961159,2.9630291 8.3890873,3.35355339 L8.3890873,3.35355339 L5.16874747,6.57266017 L3.90685425,5.31066017 C3.51632996,4.92013588 2.88316498,4.92013588 2.49264069,5.31066017 C2.1021164,5.70118446 2.1021164,6.33434944 2.49264069,6.72487373 L2.49264069,6.72487373 L4.14999079,8.38492815 C4.19781009,8.52480281 4.27750893,8.65618858 4.3890873,8.76776695 C4.69903612,9.07771578 5.16182864,9.1416664 5.53509326,8.96011001 C5.67082455,8.91191381 5.79822627,8.83350171 5.90685425,8.72487373 C5.97704194,8.65468605 6.03461501,8.57666065 6.07957348,8.49361483 L6.07957348,8.49361483 L9.80330086,4.76776695 C10.1938252,4.37724266 10.1938252,3.74407768 9.80330086,3.35355339 Z" id="Combined-Shape" fill="#4CAF50"></path>
    </g>
</svg>