<?xml version="1.0" encoding="UTF-8"?>
<svg width="16px" height="16px" viewBox="0 0 16 16" version="1.1" xmlns="http://www.w3.org/2000/svg" xmlns:xlink="http://www.w3.org/1999/xlink">
    <title>Oval 3 Copy 2</title>
    <g id="Symbols" stroke="none" stroke-width="1" fill="none" fill-rule="evenodd">
        <g id="play-o--for-dark" fill="#E9EBF0" fill-rule="nonzero">
            <path d="M12.3234931,1.26783644 C12.5557143,1.41726176 12.6228336,1.7266474 12.4734083,1.95886859 C12.3239829,2.19108978 12.0145973,2.25820909 11.7823761,2.10878376 C10.6631104,1.3885797 9.36095866,1 8,1 C4.13400675,1 1,4.13400675 1,8 C1,11.8659932 4.13400675,15 8,15 C11.8659932,15 15,11.8659932 15,8 C15,6.91017904 14.7510969,5.85692067 14.2790308,4.90206983 C14.1566489,4.65452734 14.2581116,4.35464438 14.5056541,4.23226251 C14.7531966,4.10988063 15.0530796,4.21134336 15.1754614,4.45888586 C15.715283,5.55078597 16,6.75559444 16,8 C16,12.418278 12.418278,16 8,16 C3.581722,16 0,12.418278 0,8 C0,3.581722 3.581722,0 8,0 C9.5543051,0 11.0440373,0.44455624 12.3234931,1.26783644 Z" id="Oval-3-Copy-2"></path>
        </g>
    </g>
</svg>