<?xml version="1.0" encoding="UTF-8"?>
<svg width="12px" height="12px" viewBox="0 0 12 12" version="1.1" xmlns="http://www.w3.org/2000/svg" xmlns:xlink="http://www.w3.org/1999/xlink">
    <!-- Generator: Sketch 64 (93537) - https://sketch.com -->
    <title>Remind Copy</title>
    <desc>Created with Sketch.</desc>
    <g id="Remind-Copy" stroke="none" stroke-width="1" fill="none" fill-rule="evenodd">
        <path d="M6.48473546,0.123957189 C6.64828145,0.214720515 6.78309372,0.349532782 6.87385705,0.513078775 L11.8695246,9.51474751 C12.1375221,9.99765098 11.9633064,10.6063765 11.480403,10.8743741 C11.3319404,10.9567665 11.1649434,11 10.9951505,11 L1.00381546,11 C0.451530712,11 0.00381546175,10.5522847 0.00381546175,10 C0.00381546175,9.83020703 0.0470489271,9.66321008 0.129441387,9.51474751 L5.1251089,0.513078775 C5.39310645,0.0301753075 6.00183199,-0.144040361 6.48473546,0.123957189 Z M6,8 C5.44771525,8 5,8.44771525 5,9 C5,9.55228475 5.44771525,10 6,10 C6.55228475,10 7,9.55228475 7,9 C7,8.44771525 6.55228475,8 6,8 Z M6,2 C5.44771525,2 5,2.44771525 5,3 L5,3 L5,6 C5,6.55228475 5.44771525,7 6,7 C6.55228475,7 7,6.55228475 7,6 L7,6 L7,3 C7,2.44771525 6.55228475,2 6,2 Z" id="Combined-Shape" fill="#FFB300"></path>
    </g>
</svg>