<?xml version="1.0" encoding="UTF-8"?>
<svg width="16px" height="16px" viewBox="0 0 16 16" version="1.1" xmlns="http://www.w3.org/2000/svg" xmlns:xlink="http://www.w3.org/1999/xlink">
    <title>Icon/status/warning-round</title>
    <g id="Icon/status/warning-round" stroke="none" stroke-width="1" fill="none" fill-rule="evenodd">
        <path d="M8,0 C12.418278,0 16,3.581722 16,8 C16,12.418278 12.418278,16 8,16 C3.581722,16 0,12.418278 0,8 C0,3.581722 3.581722,0 8,0 Z M5.70710678,4.29289322 C5.31658249,3.90236893 4.68341751,3.90236893 4.29289322,4.29289322 C3.90236893,4.68341751 3.90236893,5.31658249 4.29289322,5.70710678 L4.29289322,5.70710678 L6.58578644,8 L4.29289322,10.2928932 C3.90236893,10.6834175 3.90236893,11.3165825 4.29289322,11.7071068 C4.68341751,12.0976311 5.31658249,12.0976311 5.70710678,11.7071068 L5.70710678,11.7071068 L8,9.41421356 L10.2928932,11.7071068 C10.6834175,12.0976311 11.3165825,12.0976311 11.7071068,11.7071068 C12.0976311,11.3165825 12.0976311,10.6834175 11.7071068,10.2928932 L11.7071068,10.2928932 L9.41421356,8 L11.7071068,5.70710678 C12.0976311,5.31658249 12.0976311,4.68341751 11.7071068,4.29289322 C11.3165825,3.90236893 10.6834175,3.90236893 10.2928932,4.29289322 L10.2928932,4.29289322 L8,6.58578644 Z" id="Combined-Shape" fill="#575757"></path>
    </g>
</svg>