<?xml version="1.0" standalone="no"?><!DOCTYPE svg PUBLIC "-//W3C//DTD SVG 1.1//EN" "http://www.w3.org/Graphics/SVG/1.1/DTD/svg11.dtd"><svg t="1585901079840" class="icon" viewBox="0 0 1024 1024" version="1.1" xmlns="http://www.w3.org/2000/svg" p-id="14318" xmlns:xlink="http://www.w3.org/1999/xlink" width="200" height="200"><defs><style type="text/css"></style></defs><path d="M888.159701 678.959541c-127.792763 31.948191-261.975164-12.779276-357.819736-102.234211-127.792763-127.792763-153.351315-325.871545-57.506743-479.22286C504.781413 52.775003 460.053946-11.121378 402.547203 1.657898c-95.844572 19.168914-185.299506 70.28602-255.585526 140.572039C51.117105 238.074509 0 372.25691 0 506.439311 0 640.621712 51.117105 774.804113 153.351315 870.648685 249.195887 972.882895 376.98865 1024 517.560689 1024c140.572039 0 268.364802-51.117105 364.209374-153.351315 25.558553-25.558553 51.117105-57.506743 76.675658-95.844572 25.558553-44.727467-12.779276-108.623848-70.28602-95.844572z" p-id="14319"></path><path d="M1003.173187 238.074509c25.558553-25.558553 25.558553-63.896381 0-89.454934-25.558553-25.558553-63.896381-25.558553-89.454933 0-19.168914 19.168914-83.065296 19.168914-102.234211 0-25.558553-25.558553-63.896381-25.558553-89.454934 0-25.558553 25.558553-25.558553 63.896381 0 89.454934 19.168914 19.168914 19.168914 83.065296 0 102.23421-25.558553 25.558553-25.558553 63.896381 0 89.454934 25.558553 25.558553 63.896381 25.558553 89.454934 0 19.168914-19.168914 83.065296-19.168914 102.234211 0 25.558553 25.558553 63.896381 25.558553 89.454933 0 25.558553-25.558553 25.558553-63.896381 0-89.454934-19.168914-19.168914-19.168914-83.065296 0-102.23421z" p-id="14320"></path></svg>