<!-- Generated by IcoMoon.io -->
<svg version="1.1" xmlns="http://www.w3.org/2000/svg" width="20" height="20" viewBox="0 0 20 20">
<title>measure</title>
<path d="M6 12.828l-2.828-2.828 2.828-2.828v-1.172c0-1.105 0.895-2 2-2h10c1.105 0 2 0.895 2 2v8c0 1.105-0.895 2-2 2h-10c-1.105 0-2-0.895-2-2v-1.172zM8 12v2h10v-8h-10v2l-2 2 2 2z"></path>
<path d="M3 2v16c0.552 0 1 0.448 1 1s-0.448 1-1 1h-2c-0.552 0-1-0.448-1-1s0.448-1 1-1v-16c-0.552 0-1-0.448-1-1s0.448-1 1-1h2c0.552 0 1 0.448 1 1s-0.448 1-1 1z"></path>
</svg>
