<?xml version="1.0" standalone="no"?><!DOCTYPE svg PUBLIC "-//W3C//DTD SVG 1.1//EN" "http://www.w3.org/Graphics/SVG/1.1/DTD/svg11.dtd">
<svg
  t="1627365180510"
  class="icon"
  viewBox="0 0 1024 1024"
  version="1.1"
  xmlns="http://www.w3.org/2000/svg"
  p-id="38292"
  width="128"
  height="128"
  xmlns:xlink="http://www.w3.org/1999/xlink"
>
  <path
    d="M255.072116 639.92001v155.692538c63.352081-12.350456 147.821522-26.55668 219.940507-28.284464v-86.709161h73.84677v86.709161c75.638545 3.51956 158.380202 23.03712 219.940507 37.115361v-159.212099h73.846769v196.455443s149.549306 31.804024 181.225347 74.230721c-102.067242-47.738033-290.267717-68.983377-475.012623-74.230721v74.230721H475.012623v-74.230721c-22.909136 0-35.195601 0-66.871641 8.766904-31.67604 8.894888-77.430321 38.971129-79.158105 63.736033C323.671541 954.888639 475.012623 1023.872016 475.012623 1023.872016H36.923385s73.910761-70.775153 116.145481-106.16273c29.884264-19.453568 33.403825-23.03712 66.807649-40.698912-94.964129 15.934008-158.31621 8.830896-219.876515 37.11536 38.715161-45.946257 183.017123-109.68229 183.017123-109.682289V639.92001h72.054993zM512.575928 0l118.065242 354.195726h-25.660793l3.391577 10.23872L724.645419 639.92001H298.650669l140.270466-278.87714 1.727784-5.11936h-35.963505L512.575928 0z m283.9965 142.062242l92.40445 248.032996h-35.899513l85.557306 213.925259H731.428571l-34.171728-83.829521 63.288089-130.095738h-35.963505l71.863017-248.096988 0.127984 0.063992zM226.019748 127.984002l96.627921 257.247844h-39.035121l57.656793 130.351706-45.75428 81.653793H85.301337l106.866642-215.525059h-35.643545L226.019748 127.984002z"
    p-id="38293"
  ></path>
</svg>
