<?xml version="1.0" standalone="no"?><!DOCTYPE svg PUBLIC "-//W3C//DTD SVG 1.1//EN" "http://www.w3.org/Graphics/SVG/1.1/DTD/svg11.dtd"><svg t="1631100164073" class="icon" viewBox="0 0 1024 1024" version="1.1" xmlns="http://www.w3.org/2000/svg" p-id="2517" width="128" height="128"><path d="M512 134c51.06 0 100.55 9.99 147.12 29.68 45 19.04 85.44 46.3 120.17 81.03 34.74 34.74 62 75.17 81.04 120.17C880.01 411.45 890 460.94 890 512s-9.99 100.55-29.68 147.12c-19.04 45-46.3 85.44-81.04 120.17-34.74 34.74-75.17 62-120.17 81.04C612.55 880.01 563.06 890 512 890s-100.55-9.99-147.12-29.68c-45-19.04-85.44-46.3-120.17-81.04-34.74-34.74-62-75.17-81.03-120.17C143.99 612.55 134 563.06 134 512s9.99-100.55 29.68-147.11c19.04-45 46.3-85.44 81.03-120.17 34.74-34.74 75.17-62 120.17-81.03C411.45 143.99 460.94 134 512 134m0-64C267.89 70 70 267.89 70 512s197.89 442 442 442 442-197.89 442-442S756.11 70 512 70z" p-id="2518"></path><path d="M512 828c174.52 0 316-141.48 316-316S686.52 196 512 196v632z" p-id="2519"></path></svg>
