<!-- Generated by IcoMoon.io -->
<svg version="1.1" xmlns="http://www.w3.org/2000/svg" width="20" height="20" viewBox="0 0 20 20">
<title>light-off</title>
<path d="M10 15.311c2.946 0 5.311-2.365 5.311-5.311s-2.365-5.311-5.311-5.311c-0.789 0-1.535 0.207-2.199 0.498 1.826 0.83 3.071 2.656 3.071 4.814s-1.245 3.983-3.071 4.814c0.664 0.29 1.411 0.498 2.199 0.498v-0.002zM17.096 7.054l2.904 2.946-2.904 2.946v4.15h-4.15l-2.946 2.904-2.946-2.904h-4.15v-4.15l-2.904-2.946 2.904-2.946v-4.15h4.15l2.946-2.904 2.946 2.904h4.15v4.15z"></path>
</svg>
