<?xml version="1.0" standalone="no"?><!DOCTYPE svg PUBLIC "-//W3C//DTD SVG 1.1//EN" "http://www.w3.org/Graphics/SVG/1.1/DTD/svg11.dtd"><svg t="1585902688570" class="icon" viewBox="0 0 1024 1024" version="1.1" xmlns="http://www.w3.org/2000/svg" p-id="48297" xmlns:xlink="http://www.w3.org/1999/xlink" width="260" height="260"><defs><style type="text/css"></style></defs><path d="M512 204.8c-169.699556 0-307.2 137.602844-307.2 307.2 0 169.699556 137.500444 307.2 307.2 307.2s307.2-137.500444 307.2-307.2c0-169.597156-137.500444-307.2-307.2-307.2zM477.804089 0h68.3008v136.4992H477.804089zM477.804089 887.5008h68.3008V1024H477.804089zM270.597689 222.4128l-48.298667 48.298667-96.500622-96.500623 48.298667-48.298666zM222.304711 753.408l48.298667 48.298667-96.494934 96.500622-48.298666-48.298667zM0 477.9008h136.4992v68.3008H0zM887.5008 477.9008h136.4992v68.3008h-136.4992zM898.2016 849.902933l-48.298667 48.298667-96.597333-96.597333 48.298667-48.298667zM753.402311 222.401422l48.298667 48.298667 96.603022-96.500622-48.304356-48.298667z" p-id="48298"></path></svg>