<svg xmlns="http://www.w3.org/2000/svg" xmlns:xlink="http://www.w3.org/1999/xlink" width="82" height="20"><defs><path id="a" d="M6.43 15.66L6 4.1a.7.7 0 0 1 .66-.73l9.83-.61a.7.7 0 0 1 .75.7v12.6a.7.7 0 0 1-.74.7l-9.4-.43a.7.7 0 0 1-.67-.67z"/></defs><g fill="none" fill-rule="evenodd"><rect width="82" height="20" fill="#2A0481" rx="3"/><path fill="#FFF" fill-rule="nonzero" d="M24.91 13.84c-.6 0-1.18-.08-1.75-.24a4.17 4.17 0 0 1-1.4-.67l.58-1.24c.77.53 1.64.8 2.6.8.5 0 .88-.09 1.15-.25.27-.16.4-.38.4-.66 0-.26-.12-.46-.37-.6a4.98 4.98 0 0 0-1.3-.41 7.34 7.34 0 0 1-1.7-.52 2.2 2.2 0 0 1-.91-.74c-.2-.3-.3-.66-.3-1.1 0-.47.14-.9.4-1.27.28-.37.65-.67 1.14-.88a4.15 4.15 0 0 1 1.68-.32c.57 0 1.12.08 1.64.25.53.16.95.38 1.26.66l-.57 1.24a3.9 3.9 0 0 0-2.32-.8c-.46 0-.82.1-1.09.27a.82.82 0 0 0-.4.72c0 .18.05.33.16.44.1.12.27.22.5.31.25.1.59.18 1.02.28a5.7 5.7 0 0 1 2.23.86c.45.36.67.84.67 1.46 0 .75-.29 1.33-.87 1.76-.59.43-1.4.65-2.45.65zM32.34 12.58c.18 0 .36 0 .55-.03l-.1 1.23c-.21.03-.43.05-.65.05-.85 0-1.47-.19-1.86-.55-.39-.37-.58-.92-.58-1.67V9.5h-1.06V8.23h1.06V6.63h1.71v1.6h1.4V9.5h-1.4v2.1c0 .66.31.98.93.98zM36.33 13.83c-.59 0-1.1-.12-1.56-.36a2.5 2.5 0 0 1-1.03-1 3.04 3.04 0 0 1-.36-1.51c0-.58.12-1.09.36-1.52.24-.43.59-.76 1.03-.99.45-.23.97-.35 1.56-.35.6 0 1.11.12 1.56.35.44.23.79.56 1.03 1 .24.42.36.93.36 1.51s-.12 1.09-.36 1.52a2.5 2.5 0 0 1-1.03 1 3.3 3.3 0 0 1-1.56.35zm0-1.3c.83 0 1.25-.52 1.25-1.57 0-.53-.1-.93-.32-1.19-.22-.26-.53-.39-.93-.39-.83 0-1.25.53-1.25 1.58s.42 1.58 1.25 1.58zM44.03 9.5l-.96.1c-.48.04-.82.17-1.01.4-.2.21-.3.5-.3.87v2.87h-1.71v-5.5h1.64v.93c.28-.64.86-.98 1.74-1.04l.5-.04.1 1.4zM49.02 8.25h1.68l-3.36 7.5H45.6l1.07-2.31-2.3-5.19h1.78l1.41 3.49 1.46-3.49zM54.67 8.1c.49 0 .92.12 1.29.35.37.23.66.56.87 1 .2.42.31.92.31 1.49 0 .56-.1 1.07-.31 1.5a2.3 2.3 0 0 1-2.15 1.38c-.4 0-.74-.07-1.05-.23a1.73 1.73 0 0 1-.72-.67v.82h-1.69v-7.9h1.72v3.14c.16-.28.4-.5.7-.65.31-.15.66-.23 1.03-.23zm-.5 4.44c.4 0 .72-.14.94-.42.22-.28.33-.67.33-1.18 0-.5-.11-.89-.33-1.15-.22-.27-.53-.4-.94-.4-.4 0-.7.14-.93.41a1.8 1.8 0 0 0-.33 1.16c0 .5.11.9.33 1.17.22.27.53.4.93.4zM60.87 13.83c-.6 0-1.11-.12-1.56-.36a2.5 2.5 0 0 1-1.03-1 3.04 3.04 0 0 1-.37-1.51c0-.58.12-1.09.37-1.52.24-.43.58-.76 1.03-.99.45-.23.97-.35 1.56-.35.59 0 1.1.12 1.55.35.45.23.8.56 1.04 1 .24.42.36.93.36 1.51s-.12 1.09-.36 1.52a2.5 2.5 0 0 1-1.04 1 3.3 3.3 0 0 1-1.55.35zm0-1.3c.83 0 1.25-.52 1.25-1.57 0-.53-.11-.93-.33-1.19-.21-.26-.52-.39-.92-.39-.84 0-1.25.53-1.25 1.58s.41 1.58 1.25 1.58zM67.26 13.83c-.59 0-1.1-.12-1.55-.36a2.5 2.5 0 0 1-1.04-1 3.04 3.04 0 0 1-.36-1.51c0-.58.12-1.09.36-1.52.24-.43.59-.76 1.04-.99.44-.23.96-.35 1.55-.35.6 0 1.11.12 1.56.35.44.23.79.56 1.03 1 .24.42.37.93.37 1.51s-.13 1.09-.37 1.52a2.5 2.5 0 0 1-1.03 1 3.3 3.3 0 0 1-1.56.35zm0-1.3c.83 0 1.25-.52 1.25-1.57 0-.53-.1-.93-.32-1.19-.22-.26-.53-.39-.93-.39-.83 0-1.25.53-1.25 1.58s.42 1.58 1.25 1.58zM77 13.74h-2.1l-2.14-2.46v2.46h-1.71v-7.9h1.71v4.75l2.06-2.34h2.04l-2.34 2.62z"/><mask id="b" fill="#fff"><use xlink:href="#a"/></mask><use fill="#FF4785" xlink:href="#a"/><path fill="#FFF" fill-rule="nonzero" d="M14.3 4.48l.06-1.62 1.35-.1.06 1.66a.1.1 0 0 1-.17.09l-.52-.41-.61.47a.1.1 0 0 1-.17-.1zm-1.73 3.55c0 .28 1.85.15 2.1-.05 0-1.86-1-2.84-2.84-2.84-1.83 0-2.86 1-2.86 2.49 0 2.6 3.51 2.65 3.51 4.06 0 .4-.2.64-.62.64-.56 0-.78-.29-.76-1.26 0-.2-2.13-.27-2.2 0-.16 2.35 1.3 3.03 2.98 3.03 1.63 0 2.9-.86 2.9-2.43 0-2.79-3.56-2.71-3.56-4.1 0-.55.42-.63.66-.63.26 0 .73.05.7 1.1z" mask="url(#b)"/></g></svg>