<?xml version="1.0" encoding="UTF-8"?>
<svg width="16px" height="16px" viewBox="0 0 16 16" version="1.1" xmlns="http://www.w3.org/2000/svg" xmlns:xlink="http://www.w3.org/1999/xlink">
    <title>Icon/edit</title>
    <g id="Icon/edit" stroke="none" stroke-width="1" fill="none" fill-rule="evenodd">
        <g id="Group" transform="translate(1.000000, 0.000000)" fill="#575757">
            <path d="M13.5,15 C13.7761424,15 14,15.2238576 14,15.5 C14,15.7761424 13.7761424,16 13.5,16 L0.5,16 C0.223857625,16 3.38176876e-17,15.7761424 0,15.5 C-3.38176876e-17,15.2238576 0.223857625,15 0.5,15 L13.5,15 Z M12.2530483,1.06066017 L12.9601551,1.76776695 C13.5459415,2.35355339 13.5142833,3.33495911 12.8894444,3.95979797 L11.017,5.83221973 L10.31,5.12521973 L12.1823376,3.25269119 C12.4264883,3.00854053 12.4377454,2.65957081 12.2530483,2.47487373 L11.5459415,1.76776695 C11.3612445,1.58306988 11.0122748,1.59432697 10.7681241,1.83847763 L3.05132369,9.55527802 L2.62705963,11.3937557 L4.46553726,10.9694916 L8.789,6.64521973 L9.496,7.35221973 L4.96984848,11.8793939 L1.29289322,12.7279221 L2.14142136,9.0509668 L10.0610173,1.13137085 C10.6858562,0.506531983 11.6672619,0.474873734 12.2530483,1.06066017 Z" id="Combined-Shape"></path>
        </g>
    </g>
</svg>