<?xml version="1.0" encoding="UTF-8"?>
<svg width="16px" height="16px" viewBox="0 0 16 16" version="1.1" xmlns="http://www.w3.org/2000/svg" xmlns:xlink="http://www.w3.org/1999/xlink">
    <title>Icon/export</title>
    <g id="Icon/export" stroke="none" stroke-width="1" fill="none" fill-rule="evenodd">
        <path d="M4,15 C1.75002477,14.7238135 0,12.8162768 0,10.5 C0,8.53830677 1.2552362,6.86978967 3.00633111,6.25382619 C3.00212712,6.16974778 3,6.0851223 3,6 C3,3.23857625 5.23857625,1 8,1 C10.4271252,1 12.4503323,2.72937881 12.9046212,5.02313625 C14.584792,5.21654904 15.9028619,6.59976133 15.9948667,8.30880884 L16,8.5 C16,8.77614237 15.7761424,9 15.5,9 C15.2238576,9 15,8.77614237 15,8.5 C15,7.22708067 14.043132,6.16079979 12.7902614,6.01657565 L12.0654266,5.93313632 L11.9236752,5.21741697 C11.5558455,3.3602022 9.91773644,2 8,2 C5.790861,2 4,3.790861 4,6 L4.00127246,6.10214226 L4.00127246,6.10214226 L4.04236244,6.9494562 L3.33815942,7.19716598 C1.94883331,7.68587402 1,9.0027735 1,10.5 C1,12.2675872 2.32001683,13.7575163 4.06490164,14 L5.5,14 C5.77614237,14 6,14.2238576 6,14.5 C6,14.7761424 5.77614237,15 5.5,15 L4,15 Z" id="Path" fill="#575757"></path>
        <g id="Group" transform="translate(10.500000, 11.500000) scale(-1, -1) rotate(90.000000) translate(-10.500000, -11.500000) translate(7.000000, 7.000000)" fill="#575757" fill-rule="nonzero">
            <path d="M3,0.5 C3,0.223857625 3.22385763,0 3.5,0 C3.77614237,0 4,0.223857625 4,0.5 L4,7.5 C4,7.77614237 3.77614237,8 3.5,8 C3.22385763,8 3,7.77614237 3,7.5 L3,0.5 Z" id="Line-7"></path>
            <path d="M3.85355339,8.14644661 C4.04881554,8.34170876 4.04881554,8.65829124 3.85355339,8.85355339 C3.65829124,9.04881554 3.34170876,9.04881554 3.14644661,8.85355339 L0.146446609,5.85355339 C-0.0488155365,5.65829124 -0.0488155365,5.34170876 0.146446609,5.14644661 C0.341708755,4.95118446 0.658291245,4.95118446 0.853553391,5.14644661 L3.85355339,8.14644661 Z" id="Line-8"></path>
            <path d="M3.14644661,8.14644661 L6.14644661,5.14644661 C6.34170876,4.95118446 6.65829124,4.95118446 6.85355339,5.14644661 C7.04881554,5.34170876 7.04881554,5.65829124 6.85355339,5.85355339 L3.85355339,8.85355339 C3.65829124,9.04881554 3.34170876,9.04881554 3.14644661,8.85355339 C2.95118446,8.65829124 2.95118446,8.34170876 3.14644661,8.14644661 Z" id="Line-8"></path>
        </g>
    </g>
</svg>