<?xml version="1.0" encoding="UTF-8"?>
<svg width="16px" height="16px" viewBox="0 0 16 16" version="1.1" xmlns="http://www.w3.org/2000/svg" xmlns:xlink="http://www.w3.org/1999/xlink">
    <title>Icon/gear</title>
    <g id="Icon/gear" stroke="none" stroke-width="1" fill="none" fill-rule="evenodd">
        <path d="M9.9141209,3.37919487 L9.37709946,3.15643947 L9.10754453,1 L6.87310897,1 L6.60279766,3.16249043 L6.06889219,3.38627796 C5.67391215,3.55183462 5.30195999,3.76786611 4.96190638,4.02846745 L4.50050407,4.38206481 L2.48675781,3.53246102 L1.36954003,5.46753898 L3.11327072,6.78750936 L3.04025624,7.36166022 C3.01350823,7.57199373 3,7.78502744 3,8 C3,8.21497256 3.01350823,8.42800627 3.04025624,8.63833978 L3.11327072,9.21249064 L1.36954003,10.532461 L2.48675781,12.467539 L4.50050407,11.6179352 L4.96190638,11.9715326 C5.30195999,12.2321339 5.67391215,12.4481654 6.06889219,12.613722 L6.60279766,12.8375096 L6.87310897,15 L9.10754453,15 L9.37709946,12.8435605 L9.9141209,12.6208051 C10.3131806,12.455276 10.6889607,12.2383029 11.0323591,11.9759207 L11.4935055,11.6235702 L13.4938957,12.467539 L14.6111135,10.532461 L12.8838227,9.22493535 L12.9583163,8.64946467 C12.9860109,8.43552121 13,8.2187652 13,8 C13,7.7812348 12.9860109,7.56447879 12.9583163,7.35053533 L12.8838227,6.77506465 L14.6111135,5.46753898 L13.4938957,3.53246102 L11.4935055,4.37642984 L11.0323591,4.02407932 C10.6889607,3.76169714 10.3131806,3.54472401 9.9141209,3.37919487 Z M11.6394929,3.22947972 L13.105174,2.6111058 C13.5698349,2.4150644 14.1077595,2.59570426 14.3599211,3.03246102 L15.4771389,4.96753898 C15.7293005,5.40429574 15.6167769,5.96047204 15.2146696,6.26485946 L13.9500418,7.22215827 C13.9830018,7.47677781 14,7.73640384 14,8 C14,8.26359616 13.9830018,8.52322219 13.9500418,8.77784173 L15.2146696,9.73514054 C15.6167769,10.039528 15.7293005,10.5957043 15.4771389,11.032461 L14.3599211,12.967539 C14.1077595,13.4042957 13.5698349,13.5849356 13.105174,13.3888942 L11.6394929,12.7705203 C11.2302796,13.08319 10.7796501,13.3444014 10.297265,13.5444937 L10.0998224,15.1240347 C10.0372688,15.6244636 9.6118678,16 9.10754453,16 L6.87310897,16 C6.3687857,16 5.94338469,15.6244636 5.88083109,15.1240347 L5.68232464,13.5359831 C5.20493692,13.3358851 4.75890049,13.0758384 4.3536313,12.7652588 L2.87547952,13.3888942 C2.41081865,13.5849356 1.87289404,13.4042957 1.62073241,12.967539 L0.503514628,11.032461 C0.251352993,10.5957043 0.363876591,10.039528 0.765983862,9.73514054 L2.04824551,8.76449329 C2.0164095,8.51415016 2,8.2589914 2,8 C2,7.7410086 2.0164095,7.48584984 2.04824551,7.23550671 L0.765983862,6.26485946 C0.363876591,5.96047204 0.251352993,5.40429574 0.503514628,4.96753898 L1.62073241,3.03246102 C1.87289404,2.59570426 2.41081865,2.4150644 2.87547952,2.6111058 L4.3536313,3.23474115 C4.75890049,2.92416161 5.20493692,2.66411486 5.68232464,2.46401686 L5.88083109,0.875965265 C5.94338469,0.375536443 6.3687857,4.4408921e-16 6.87310897,4.4408921e-16 L9.10754453,4.4408921e-16 C9.6118678,4.4408921e-16 10.0372688,0.375536443 10.0998224,0.875965265 L10.297265,2.4555063 C10.7796501,2.65559865 11.2302796,2.91680998 11.6394929,3.22947972 Z" id="Combined-Shape" fill="#575757" fill-rule="nonzero" transform="translate(7.990327, 8.000000) rotate(30.000000) translate(-7.990327, -8.000000) "></path>
        <path d="M8,10 C9.1045695,10 10,9.1045695 10,8 C10,6.8954305 9.1045695,6 8,6 C6.8954305,6 6,6.8954305 6,8 C6,9.1045695 6.8954305,10 8,10 Z M8,11 C6.34314575,11 5,9.65685425 5,8 C5,6.34314575 6.34314575,5 8,5 C9.65685425,5 11,6.34314575 11,8 C11,9.65685425 9.65685425,11 8,11 Z" id="Oval" fill="#575757" fill-rule="nonzero"></path>
    </g>
</svg>