<?xml version="1.0" encoding="UTF-8"?>
<svg width="16px" height="16px" viewBox="0 0 16 16" version="1.1" xmlns="http://www.w3.org/2000/svg" xmlns:xlink="http://www.w3.org/1999/xlink">
    <title>Icon/global</title>
    <g id="Icon/global" stroke="none" stroke-width="1" fill="none" fill-rule="evenodd">
        <path d="M7.5,15 C11.0898509,15 14,12.0898509 14,8.5 C14,4.91014913 11.0898509,2 7.5,2 C3.91014913,2 1,4.91014913 1,8.5 C1,12.0898509 3.91014913,15 7.5,15 Z M7.5,16 C3.35786438,16 0,12.6421356 0,8.5 C0,4.35786438 3.35786438,1 7.5,1 C11.6421356,1 15,4.35786438 15,8.5 C15,12.6421356 11.6421356,16 7.5,16 Z" id="Oval" fill="#575757" fill-rule="nonzero"></path>
        <path d="M3.5847343,5.0404248 C3.30201629,4.90589311 3.03788627,4.76265706 2.79977936,4.6144342 L2,4 L2.5,3.5 L2.94165685,3.5 C3.20499965,3.70848814 3.54448321,3.91282981 3.92977696,4.10030858 C4.55784829,2.61572716 5.54307695,1.33282051 7,1.09 L7,2 C6.12122294,2 5.31759613,3.03706827 4.7637391,4.45315909 C5.65675127,4.78062246 6.65732081,5 7.5,5 C9.02774886,5 11.074459,4.27893974 12.0583431,3.5 L12.5,3.5 L13,4 L12.2002206,4.6144342 C10.9825784,5.37242312 9.084395,6 7.5,6 C6.52361503,6 5.42806412,5.7616681 4.44605094,5.40135614 C4.16403412,6.39374407 4,7.48447293 4,8.5 C4,11.4357631 5.37086034,15 7,15 L7,15.98 C4,15.48 3,10.5 3,8.5 C3,7.67227465 3.17128231,6.34611776 3.5847343,5.0404248 L3.5847343,5.0404248 Z" id="Combined-Shape" fill="#575757" fill-rule="nonzero"></path>
        <path d="M10.2362609,12.5468409 C9.34324873,12.2193775 8.34267919,12 7.5,12 C5.97225114,12 3.92554096,12.7210603 2.94165685,13.5 L2.5,13.5 L2,13 L2.79977936,12.3855658 C4.01742157,11.6275769 5.915605,11 7.5,11 C8.47638497,11 9.57193588,11.2383319 10.5539491,11.5986439 C10.8359659,10.6062559 11,9.51552707 11,8.5 C11,5.56423687 9.62913966,2 8,2 L8,1.09 C11,1.59 12,6.5 12,8.5 C12,9.32298566 11.8306737,10.6505638 11.4223444,11.9629473 C11.7023932,12.0964994 11.9641021,12.2385807 12.2002206,12.3855658 L13,13 L12.5,13.5 L12.0583431,13.5 C11.7978823,13.2937935 11.4629381,13.0916432 11.0828562,12.9058526 C10.4553925,14.4202242 9.46672888,15.7355452 8,15.98 L8,15 C8.87877706,15 9.68240387,13.9629317 10.2362609,12.5468409 L10.2362609,12.5468409 Z" id="Combined-Shape" fill="#575757" fill-rule="nonzero"></path>
        <polygon id="Combined-Shape" fill="#575757" points="7 8 7 2 8 2 8 8 14 8 14 9 8 9 8 15 7 15 7 9 1 9 1 8"></polygon>
    </g>
</svg>