<?xml version="1.0" encoding="UTF-8"?>
<svg width="16px" height="16px" viewBox="0 0 16 16" version="1.1" xmlns="http://www.w3.org/2000/svg" xmlns:xlink="http://www.w3.org/1999/xlink">
    <title>Icon/help-outline</title>
    <g id="Icon/help-outline" stroke="none" stroke-width="1" fill="none" fill-rule="evenodd">
        <path d="M8,14 C11.3137085,14 14,11.3137085 14,8 C14,4.6862915 11.3137085,2 8,2 C4.6862915,2 2,4.6862915 2,8 C2,11.3137085 4.6862915,14 8,14 Z M8,1 C11.8659932,1 15,4.13400675 15,8 C15,11.8659932 11.8659932,15 8,15 C4.13400675,15 1,11.8659932 1,8 C1,4.13400675 4.13400675,1 8,1 Z M8,10.3333333 C7.35566779,10.3333333 6.83333333,10.8556678 6.83333333,11.5 C6.83333333,12.1443322 7.35566779,12.6666667 8,12.6666667 C8.64433221,12.6666667 9.16666667,12.1443322 9.16666667,11.5 C9.16666667,10.8556678 8.64433221,10.3333333 8,10.3333333 Z M8,3.91666667 C6.53179108,3.91666667 5.66666667,4.80657503 5.66666667,6.25 C5.66666667,6.5721661 5.9278339,6.83333333 6.25,6.83333333 C6.5721661,6.83333333 6.83333333,6.5721661 6.83333333,6.25 C6.83333333,5.44364784 7.18361308,5.08333333 8,5.08333333 C8.84450056,5.08333333 9.16666667,5.40549944 9.16666667,6.25 C9.16666667,6.73136692 8.76938136,7.12865222 7.8155338,7.44660141 C7.57733422,7.52600127 7.41666667,7.7489156 7.41666667,8 L7.41666667,8 L7.41666667,9.16666667 C7.41666667,9.48883277 7.6778339,9.75 8,9.75 C8.3221661,9.75 8.58333333,9.48883277 8.58333333,9.16666667 L8.58333333,9.16666667 L8.58333333,8.40471953 C9.71141493,7.93516549 10.3333333,7.21577604 10.3333333,6.25 C10.3333333,4.76116723 9.48883277,3.91666667 8,3.91666667 Z" id="Combined-Shape" fill="#575757" fill-rule="nonzero"></path>
    </g>
</svg>