<?xml version="1.0" encoding="UTF-8"?>
<svg width="16px" height="16px" viewBox="0 0 16 16" version="1.1" xmlns="http://www.w3.org/2000/svg" xmlns:xlink="http://www.w3.org/1999/xlink">
    <title>Icon/import</title>
    <g id="Icon/import" stroke="none" stroke-width="1" fill="none" fill-rule="evenodd">
        <path d="M0.00513332344,8.30880884 C0.0971381001,6.59976133 1.41520802,5.21654904 3.09537882,5.02313625 C3.5496677,2.72937881 5.57287482,1 8,1 C10.7614237,1 13,3.23857625 13,6 C13,6.0851223 12.9978729,6.16974778 12.9936689,6.25382619 C14.7447638,6.86978967 16,8.53830677 16,10.5 C16,12.7438932 14.3576428,14.6041933 12.2094323,14.9693655 L12,15 L10.5,15 C10.2238576,15 10,14.7761424 10,14.5 C10,14.2238576 10.2238576,14 10.5,14 L11.9350984,14 C13.6799832,13.7575163 15,12.2675872 15,10.5 C15,9.0678703 14.1318803,7.8007279 12.8405172,7.265554 L12.6618406,7.19716598 L11.9576376,6.9494562 L11.9949166,6.20388775 C11.9983013,6.13619555 12,6.06822122 12,6 C12,3.790861 10.209139,2 8,2 C6.15075414,2 4.56151891,3.26477985 4.12055075,5.02037083 L4.07632479,5.21741697 L3.93457339,5.93313632 L3.20973856,6.01657565 C2.01134064,6.15452918 1.08376546,7.13610361 1.00537216,8.33519771 L1,8.5 C1,8.77614237 0.776142375,9 0.5,9 C0.223857625,9 0,8.77614237 0,8.5 L0.00513332344,8.30880884 Z" id="Path" fill="#575757"></path>
        <g id="Group" transform="translate(4.500000, 11.500000) scale(-1, -1) rotate(90.000000) translate(-4.500000, -11.500000) translate(1.000000, 7.000000)" fill="#575757" fill-rule="nonzero">
            <path d="M3,0.5 C3,0.223857625 3.22385763,0 3.5,0 C3.77614237,0 4,0.223857625 4,0.5 L4,7.5 C4,7.77614237 3.77614237,8 3.5,8 C3.22385763,8 3,7.77614237 3,7.5 L3,0.5 Z" id="Line-7"></path>
            <path d="M3.85355339,8.14644661 C4.04881554,8.34170876 4.04881554,8.65829124 3.85355339,8.85355339 C3.65829124,9.04881554 3.34170876,9.04881554 3.14644661,8.85355339 L0.146446609,5.85355339 C-0.0488155365,5.65829124 -0.0488155365,5.34170876 0.146446609,5.14644661 C0.341708755,4.95118446 0.658291245,4.95118446 0.853553391,5.14644661 L3.85355339,8.14644661 Z" id="Line-8"></path>
            <path d="M3.14644661,8.14644661 L6.14644661,5.14644661 C6.34170876,4.95118446 6.65829124,4.95118446 6.85355339,5.14644661 C7.04881554,5.34170876 7.04881554,5.65829124 6.85355339,5.85355339 L3.85355339,8.85355339 C3.65829124,9.04881554 3.34170876,9.04881554 3.14644661,8.85355339 C2.95118446,8.65829124 2.95118446,8.34170876 3.14644661,8.14644661 Z" id="Line-8"></path>
        </g>
    </g>
</svg>