<?xml version="1.0" encoding="UTF-8"?>
<svg width="16px" height="16px" viewBox="0 0 16 16" version="1.1" xmlns="http://www.w3.org/2000/svg" xmlns:xlink="http://www.w3.org/1999/xlink">
    <title>Icon/remind-fill</title>
    <g id="Icon/remind-fill" stroke="none" stroke-width="1" fill="none" fill-rule="evenodd">
        <path d="M8.64733918,0.171528188 C8.86555475,0.295275534 9.04543159,0.479079509 9.16653496,0.702059243 L15.8321367,12.9749965 C16.1897195,13.6333904 15.9572676,14.463331 15.3129409,14.8287207 C15.1148508,14.9410552 14.8920307,15 14.6654799,15 L1.33427649,15 C0.597375932,15 0,14.3895819 0,13.6365931 C0,13.4050962 0.0576853963,13.1774114 0.167619719,12.9749965 L6.83322142,0.702059243 C7.19080425,0.0436653242 8.00301244,-0.19386152 8.64733918,0.171528188 Z M8,11 C7.44771525,11 7,11.4477153 7,12 C7,12.5522847 7.44771525,13 8,13 C8.55228475,13 9,12.5522847 9,12 C9,11.4477153 8.55228475,11 8,11 Z M8,4 C7.44771525,4 7,4.44771525 7,5 L7,5 L7,9 C7,9.55228475 7.44771525,10 8,10 C8.55228475,10 9,9.55228475 9,9 L9,9 L9,5 C9,4.44771525 8.55228475,4 8,4 Z" id="Combined-Shape" fill="#575757"></path>
    </g>
</svg>