<?xml version="1.0" encoding="UTF-8"?>
<svg width="16px" height="16px" viewBox="0 0 16 16" version="1.1" xmlns="http://www.w3.org/2000/svg" xmlns:xlink="http://www.w3.org/1999/xlink">
    <title>Icon/sort-down</title>
    <g id="Icon/sort-down" stroke="none" stroke-width="1" fill="none" fill-rule="evenodd">
        <path d="M8.50003001,14 C8.66001001,14 8.80244001,13.9249 8.89396001,13.808 L12.89045,8.81235 C13.06296,8.59672 13.028,8.28207 12.81237,8.10957 C12.59674,7.93706 12.28209,7.97202 12.10958,8.18765 L9.00003001,12.0746 L9.00003001,2.5 C9.00003001,2.223858 8.77617001,2 8.50003001,2 C8.22389001,2 8.00003001,2.223858 8.00003001,2.5 L8.00003001,12.0746 L4.89045301,8.18765 C4.71794801,7.97202 4.40330201,7.93706 4.18767101,8.10957 C3.97203991,8.28207 3.93707921,8.59672 4.10958401,8.81235 L8.10753001,13.8098 C8.11168001,13.815 8.11593001,13.8202 8.12028001,13.8253 C8.13869001,13.8468 8.15875001,13.8665 8.18020001,13.8843 C8.26689001,13.9566 8.37839001,14 8.50003001,14 Z" id="Path" fill="#575757" fill-rule="nonzero"></path>
    </g>
</svg>