<?xml version="1.0" encoding="UTF-8"?>
<svg width="16px" height="16px" viewBox="0 0 16 16" version="1.1" xmlns="http://www.w3.org/2000/svg" xmlns:xlink="http://www.w3.org/1999/xlink">
    <title>Icon/sort</title>
    <g id="Icon/sort" stroke="none" stroke-width="1" fill="none" fill-rule="evenodd">
        <path d="M7.6159019,3.1799078 C7.79358861,2.96668374 8.10443374,2.94299218 8.31171121,3.10883311 L8.38412318,3.1799078 L10.8841232,6.1799078 C11.0609052,6.39204625 11.0322432,6.7073286 10.8201047,6.88411064 C10.6315372,7.04125023 10.3614733,7.03606364 10.1796274,6.88397946 L10.1159019,6.8200922 L8.00001254,4.281 L5.88412318,6.8200922 C5.72698359,7.00865971 5.46041165,7.0522582 5.25412182,6.93545908 L5.17992034,6.88411064 C4.99135283,6.72697105 4.94775434,6.46039911 5.06455346,6.25410929 L5.1159019,6.1799078 L7.6159019,3.1799078 Z" id="Path" fill="#575757" fill-rule="nonzero"></path>
        <path d="M7.6159019,9.1799078 C7.79358861,8.96668374 8.10443374,8.94299218 8.31171121,9.10883311 L8.38412318,9.1799078 L10.8841232,12.1799078 C11.0609052,12.3920462 11.0322432,12.7073286 10.8201047,12.8841106 C10.6315372,13.0412502 10.3614733,13.0360636 10.1796274,12.8839795 L10.1159019,12.8200922 L8.00001254,10.281 L5.88412318,12.8200922 C5.72698359,13.0086597 5.46041165,13.0522582 5.25412182,12.9354591 L5.17992034,12.8841106 C4.99135283,12.726971 4.94775434,12.4603991 5.06455346,12.2541093 L5.1159019,12.1799078 L7.6159019,9.1799078 Z" id="Path" fill="#575757" fill-rule="nonzero" transform="translate(8.000013, 11.000006) scale(1, -1) translate(-8.000013, -11.000006) "></path>
    </g>
</svg>