<?xml version="1.0" encoding="UTF-8"?>
<svg width="16px" height="16px" viewBox="0 0 16 16" version="1.1" xmlns="http://www.w3.org/2000/svg" xmlns:xlink="http://www.w3.org/1999/xlink">
    <title>Icon/sort-down</title>
    <g id="Icon/sort-down" stroke="none" stroke-width="1" fill="none" fill-rule="evenodd">
        <path d="M8,13 C7.72385763,13 7.47385763,12.8880712 7.29289322,12.7071068 L4.29289322,9.70710678 C3.90236893,9.31658249 3.90236893,8.68341751 4.29289322,8.29289322 C4.68341751,7.90236893 5.31658249,7.90236893 5.70710678,8.29289322 L7,9.58578644 L7,4 C7,3.44771525 7.44771525,3 8,3 C8.55228475,3 9,3.44771525 9,4 L9,9.58578644 L10.2928932,8.29289322 C10.6834175,7.90236893 11.3165825,7.90236893 11.7071068,8.29289322 C12.0976311,8.68341751 12.0976311,9.31658249 11.7071068,9.70710678 L8.70710678,12.7071068 C8.52614237,12.8880712 8.27614237,13 8,13 Z" id="Combined-Shape" fill="#575757" fill-rule="nonzero"></path>
    </g>
</svg>