<?xml version="1.0" encoding="UTF-8"?>
<svg width="16px" height="16px" viewBox="0 0 16 16" version="1.1" xmlns="http://www.w3.org/2000/svg" xmlns:xlink="http://www.w3.org/1999/xlink">
    <title>Icon/tag-calculation</title>
    <g id="Icon/tag-calculation" stroke="none" stroke-width="1" fill="none" fill-rule="evenodd">
        <circle id="Oval-8" fill="#575757" cx="4" cy="4" r="1"></circle>
        <path d="M6.5,0 C6.6060866,0 6.70869717,0.0337141889 6.79350724,0.0952091774 L6.85355339,0.146446609 L10.8535534,4.14644661 C11.0488155,4.34170876 11.0488155,4.65829124 10.8535534,4.85355339 C10.679987,5.02711974 10.4105626,5.04640489 10.2156945,4.91140884 L10.1464466,4.85355339 L6.293,1 L1.5,1 C1.25454011,1 1.05039163,1.17687516 1.00805567,1.41012437 L1,1.5 L1,6.293 L4.85355339,10.1464466 C5.02711974,10.320013 5.04640489,10.5894374 4.91140884,10.7843055 L4.85355339,10.8535534 C4.67998704,11.0271197 4.41056264,11.0464049 4.2156945,10.9114088 L4.14644661,10.8535534 L0.146446609,6.85355339 C0.071432058,6.77853884 0.0227149588,6.68214268 0.00622870121,6.57868937 L0,6.5 L0,1.5 C0,0.720303883 0.594888083,0.0795513218 1.35553999,0.00686657806 L1.5,0 L6.5,0 Z" id="Path" fill="#575757" fill-rule="nonzero"></path>
        <rect id="Rectangle" fill="#575757" x="5" y="8" width="5" height="1" rx="0.5"></rect>
        <rect id="Rectangle" fill="#575757" x="7" y="6" width="1" height="5" rx="0.5"></rect>
        <rect id="Rectangle-Copy" fill="#575757" x="5" y="13" width="5" height="1" rx="0.5"></rect>
        <g id="Group" transform="translate(11.000000, 6.000000)" fill="#575757">
            <rect id="Rectangle-Copy-2" x="0" y="2" width="5" height="1" rx="0.5"></rect>
            <rect id="Rectangle-Copy-3" x="2" y="0" width="1" height="1" rx="0.5"></rect>
            <rect id="Rectangle-Copy-4" x="2" y="4" width="1" height="1" rx="0.5"></rect>
        </g>
        <path d="M11.7843055,11.0885912 L11.8535534,11.1464466 L13.5,12.793 L15.1464466,11.1464466 C15.3417088,10.9511845 15.6582912,10.9511845 15.8535534,11.1464466 C16.0271197,11.320013 16.0464049,11.5894374 15.9114088,11.7843055 L15.8535534,11.8535534 L14.207,13.5 L15.8535534,15.1464466 C16.0488155,15.3417088 16.0488155,15.6582912 15.8535534,15.8535534 C15.679987,16.0271197 15.4105626,16.0464049 15.2156945,15.9114088 L15.1464466,15.8535534 L13.5,14.207 L11.8535534,15.8535534 C11.6582912,16.0488155 11.3417088,16.0488155 11.1464466,15.8535534 C10.9728803,15.679987 10.9535951,15.4105626 11.0885912,15.2156945 L11.1464466,15.1464466 L12.793,13.5 L11.1464466,11.8535534 C10.9511845,11.6582912 10.9511845,11.3417088 11.1464466,11.1464466 C11.320013,10.9728803 11.5894374,10.9535951 11.7843055,11.0885912 Z" id="Path" fill="#575757" fill-rule="nonzero"></path>
    </g>
</svg>