<?xml version="1.0" encoding="UTF-8"?>
<svg width="16px" height="16px" viewBox="0 0 16 16" version="1.1" xmlns="http://www.w3.org/2000/svg" xmlns:xlink="http://www.w3.org/1999/xlink">
    <title>Icon/tag-crossover</title>
    <g id="Icon/tag-crossover" stroke="none" stroke-width="1" fill="none" fill-rule="evenodd">
        <path d="M1,6.29289322 L1,1.5 C1,1.22385763 1.22385763,1 1.5,1 L6.29289322,1 L13.2928932,8 C13.4881554,8.19526215 13.8047379,8.19526215 14,8 C14.1952621,7.80473785 14.1952621,7.48815536 14,7.29289322 L6.70710678,0 L1.5,0 C0.671572875,0 0,0.671572875 0,1.5 L0,6.70710678 L2.29289322,9 C2.48815536,9.19526215 2.80473785,9.19526215 3,9 C3.19526215,8.80473785 3.19526215,8.48815536 3,8.29289322 L1,6.29289322 Z" id="Path" fill="#575757" fill-rule="nonzero"></path>
        <circle id="Oval-8" fill="#575757" cx="4" cy="4" r="1"></circle>
        <path d="M5,13 C5,12.3809524 4.71258503,12.0493197 4.1377551,12.005102 L4,12 C3.38095238,12 3.04931973,12.287415 3.00510204,12.8622449 L3,13 L3,16 L2,16 L2,13 L2.00548574,12.8507377 C2.07801742,11.8676208 2.86122651,11.0821352 3.84334953,11.0060445 L4,11 C5.0543618,11 5.91816512,11.8158778 5.99451426,12.8507377 L6,13 L6,16 L5,16 L5,13 Z" id="Path" fill="#575757"></path>
        <path d="M15,13 C15,12.3809524 14.712585,12.0493197 14.1377551,12.005102 L14,12 C13.3809524,12 13.0493197,12.287415 13.005102,12.8622449 L13,13 L13,16 L12,16 L12,13 L12.0054857,12.8507377 C12.0780174,11.8676208 12.8612265,11.0821352 13.8433495,11.0060445 L14,11 C15.0543618,11 15.9181651,11.8158778 15.9945143,12.8507377 L16,13 L16,16 L15,16 L15,13 Z" id="Path-Copy" fill="#575757" transform="translate(14.000000, 13.500000) scale(1, -1) translate(-14.000000, -13.500000) "></path>
        <rect id="Rectangle" fill="#575757" x="7" y="13" width="4" height="1"></rect>
    </g>
</svg>