<?xml version="1.0" encoding="UTF-8"?>
<svg width="16px" height="16px" viewBox="0 0 16 16" version="1.1" xmlns="http://www.w3.org/2000/svg" xmlns:xlink="http://www.w3.org/1999/xlink">
    <title>Icon/tag-uploaded</title>
    <g id="Icon/tag-uploaded" stroke="none" stroke-width="1" fill="none" fill-rule="evenodd">
        <circle id="Oval-8" fill="#575757" cx="4" cy="4" r="1"></circle>
        <path d="M5.85355339,8.14644661 L8.85355339,11.1464466 C9.04881554,11.3417088 9.04881554,11.6582912 8.85355339,11.8535534 L5.85355339,14.8535534 C5.65829124,15.0488155 5.34170876,15.0488155 5.14644661,14.8535534 C4.95118446,14.6582912 4.95118446,14.3417088 5.14644661,14.1464466 L7.292,12 L2.5,12 C2.22385763,12 2,11.7761424 2,11.5 C2,11.2238576 2.22385763,11 2.5,11 L7.292,11 L5.14644661,8.85355339 C4.95118446,8.65829124 4.95118446,8.34170876 5.14644661,8.14644661 C5.34170876,7.95118446 5.65829124,7.95118446 5.85355339,8.14644661 Z" id="Path" fill="#575757" transform="translate(5.500000, 11.500000) rotate(-90.000000) translate(-5.500000, -11.500000) "></path>
        <path d="M6,0 C6.1060866,0 6.20869717,0.0337141889 6.29350724,0.0952091774 L6.35355339,0.146446609 L15.8535534,9.64644661 C16.0271197,9.82001296 16.0464049,10.0894374 15.9114088,10.2843055 L15.8535534,10.3535534 L10.3535534,15.8535534 C10.179987,16.0271197 9.91056264,16.0464049 9.7156945,15.9114088 L9.64644661,15.8535534 L8.64714088,14.8542477 C8.45187874,14.6589855 8.45187874,14.342403 8.64714088,14.1471409 C8.82070724,13.9735745 9.09013164,13.9542894 9.28499978,14.0892854 L9.35424767,14.1471409 L10,14.793 L14.793,10 L5.793,1 L1.5,1 C1.25454011,1 1.05039163,1.17687516 1.00805567,1.41012437 L1,1.5 L1,5.793 L2.35355339,7.14644661 C2.52711974,7.32001296 2.54640489,7.58943736 2.41140884,7.7843055 L2.35355339,7.85355339 C2.17998704,8.02711974 1.91056264,8.04640489 1.7156945,7.91140884 L1.64644661,7.85355339 L0.146446609,6.35355339 C0.071432058,6.27853884 0.0227149588,6.18214268 0.00622870121,6.07868937 L0,6 L0,1.5 C0,0.720303883 0.594888083,0.0795513218 1.35553999,0.00686657806 L1.5,0 L6,0 Z" id="Path" fill="#575757" fill-rule="nonzero"></path>
    </g>
</svg>