<?xml version="1.0" encoding="UTF-8"?>
<svg width="16px" height="16px" viewBox="0 0 16 16" version="1.1" xmlns="http://www.w3.org/2000/svg" xmlns:xlink="http://www.w3.org/1999/xlink">
    <title>Icon/trash</title>
    <g id="Icon/trash" stroke="none" stroke-width="1" fill="none" fill-rule="evenodd">
        <path d="M8.43844719,-4.4408921e-16 C9.30219804,-4.4408921e-16 10.0616275,0.55327424 10.3335527,1.36064257 L10.3787322,1.51492875 L10.75,3 L13.5,3 C13.7761424,3 14,3.22385763 14,3.5 C14,3.77614237 13.7761424,4 13.5,4 L13,4 L13,14 C13,15.1045695 12.1045695,16 11,16 L4,16 C2.8954305,16 2,15.1045695 2,14 L2,4 L1.5,4 C1.22385763,4 1,3.77614237 1,3.5 C1,3.22385763 1.22385763,3 1.5,3 L4.25,3 L4.62126781,1.51492875 C4.83075817,0.676967336 5.55170172,0.074401248 6.40091559,0.00641064047 L6.56155281,-4.4408921e-16 L8.43844719,-4.4408921e-16 Z M12,4 L3,4 L3,14 C3,14.5522847 3.44771525,15 4,15 L11,15 C11.5522847,15 12,14.5522847 12,14 L12,4 Z M5.5,7 C5.77614237,7 6,7.22385763 6,7.5 L6,11.5 C6,11.7761424 5.77614237,12 5.5,12 C5.22385763,12 5,11.7761424 5,11.5 L5,7.5 C5,7.22385763 5.22385763,7 5.5,7 Z M7.5,7 C7.77614237,7 8,7.22385763 8,7.5 L8,11.5 C8,11.7761424 7.77614237,12 7.5,12 C7.22385763,12 7,11.7761424 7,11.5 L7,7.5 C7,7.22385763 7.22385763,7 7.5,7 Z M9.5,7 C9.77614237,7 10,7.22385763 10,7.5 L10,11.5 C10,11.7761424 9.77614237,12 9.5,12 C9.22385763,12 9,11.7761424 9,11.5 L9,7.5 C9,7.22385763 9.22385763,7 9.5,7 Z M8.43844719,1 L6.56155281,1 C6.14092414,1 5.76977483,1.26241654 5.62511466,1.64904458 L5.59141031,1.75746437 L5.28077641,3 L9.71922359,3 L9.40858969,1.75746437 C9.29729794,1.31229737 8.89731483,1 8.43844719,1 Z" id="Combined-Shape" fill="#575757"></path>
    </g>
</svg>