<?xml version="1.0" encoding="UTF-8"?>
<svg width="16px" height="16px" viewBox="0 0 16 16" version="1.1" xmlns="http://www.w3.org/2000/svg" xmlns:xlink="http://www.w3.org/1999/xlink">
    <title>Icon/user-info</title>
    <g id="Icon/user-info" stroke="none" stroke-width="1" fill="none" fill-rule="evenodd">
        <g id="detail" transform="translate(7.500000, 8.000000) scale(1, -1) translate(-7.500000, -8.000000) translate(1.000000, 0.000000)" fill="#575757">
            <path d="M8.58578644,0 C8.80680018,0 9.02027046,0.0731644725 9.19381595,0.206080627 L9.29289322,0.292893219 L13,4 L12.2928932,4.70710678 L8.58578644,1 L2,1 C1.48716416,1 1.06449284,1.38604019 1.00672773,1.88337887 L1,2 L1,14 C1,14.5128358 1.38604019,14.9355072 1.88337887,14.9932723 L2,15 L11,15 C11.5128358,15 11.9355072,14.6139598 11.9932723,14.1166211 L12,14 L12,7.5 C12,7.22385763 12.2238576,7 12.5,7 C12.7454599,7 12.9496084,7.17687516 12.9919443,7.41012437 L13,7.5 L13,14 C13,15.0543618 12.1841222,15.9181651 11.1492623,15.9945143 L11,16 L2,16 C0.945638205,16 0.0818348781,15.1841222 0.00548573643,14.1492623 L0,14 L0,2 C0,0.945638205 0.815877791,0.0818348781 1.85073766,0.00548573643 L2,0 L8.58578644,0 Z" id="Path" fill-rule="nonzero"></path>
            <rect id="Rectangle-2" x="8" y="0" width="1" height="5" rx="0.5"></rect>
            <path d="M8.5,4 L13,4 L13,4 C13,4.55228475 12.5522847,5 12,5 L8.5,5 C8.22385763,5 8,4.77614237 8,4.5 C8,4.22385763 8.22385763,4 8.5,4 Z" id="Rectangle-16"></path>
        </g>
        <path d="M7.5,7 C8.32842712,7 9,6.32842712 9,5.5 C9,4.67157288 8.32842712,4 7.5,4 C6.67157288,4 6,4.67157288 6,5.5 C6,6.32842712 6.67157288,7 7.5,7 Z M7.5,8 C6.11928813,8 5,6.88071187 5,5.5 C5,4.11928813 6.11928813,3 7.5,3 C8.88071187,3 10,4.11928813 10,5.5 C10,6.88071187 8.88071187,8 7.5,8 Z" id="Oval-3-Copy" fill="#575757" fill-rule="nonzero"></path>
        <path d="M4,10 C4,8.06700338 6,7 7.5,7 C8.94827586,7 10.8626635,7.93222354 10.9929681,9.79667063 L11,10 L10,10 C10,8.8607843 8.81642158,8 7.5,8 C6.27297841,8 5.10174126,8.82827205 5.00626841,9.863806 L5,10 L5,11.5 C5,11.7761424 4.77614237,12 4.5,12 C4.22385763,12 4,11.7761424 4,11.5 L4,10 Z" id="Path" fill="#575757" fill-rule="nonzero"></path>
    </g>
</svg>