<!-- Generated by IcoMoon.io -->
<svg version="1.1" xmlns="http://www.w3.org/2000/svg" width="20" height="20" viewBox="0 0 20 20">
<title>components-copy-4</title>
<path d="M2 0h5c1.105 0 2 0.895 2 2v5c0 1.105-0.895 2-2 2h-5c-1.105 0-2-0.895-2-2v-5c0-1.105 0.895-2 2-2zM2 2v5h5v-5h-5z"></path>
<path d="M13 0h5c1.105 0 2 0.895 2 2v5c0 1.105-0.895 2-2 2h-5c-1.105 0-2-0.895-2-2v-5c0-1.105 0.895-2 2-2zM13 2v5h5v-5h-5z"></path>
<path d="M13 11h5c1.105 0 2 0.895 2 2v5c0 1.105-0.895 2-2 2h-5c-1.105 0-2-0.895-2-2v-5c0-1.105 0.895-2 2-2zM13 13v5h5v-5h-5z"></path>
<path d="M2 11h5c1.105 0 2 0.895 2 2v5c0 1.105-0.895 2-2 2h-5c-1.105 0-2-0.895-2-2v-5c0-1.105 0.895-2 2-2zM2 13v5h5v-5h-5z"></path>
</svg>
