<?xml version="1.0" standalone="no"?><!DOCTYPE svg PUBLIC "-//W3C//DTD SVG 1.1//EN" "http://www.w3.org/Graphics/SVG/1.1/DTD/svg11.dtd"><svg t="1516170795063" class="icon" style="" viewBox="0 0 1024 1024" version="1.1" xmlns="http://www.w3.org/2000/svg" p-id="1351" xmlns:xlink="http://www.w3.org/1999/xlink" width="200" height="200"><defs><style type="text/css"></style></defs><path d="M938.666667 1024l-224-213.333333 26.88 85.333333H192A106.666667 106.666667 0 0 1 85.333333 789.333333v-640A106.666667 106.666667 0 0 1 192 42.666667h640A106.666667 106.666667 0 0 1 938.666667 149.333333V1024M512 290.133333c-114.346667 0-194.56 49.066667-194.56 49.066667 43.946667-39.253333 120.746667-61.866667 120.746667-61.866667l-7.253334-7.253333c-72.106667 1.28-137.386667 51.2-137.386666 51.2-73.386667 153.173333-68.693333 285.44-68.693334 285.44 59.733333 77.226667 148.48 71.68 148.48 71.68l30.293334-38.4c-53.333333-11.52-87.04-58.88-87.04-58.88S396.8 635.733333 512 635.733333s195.413333-54.613333 195.413333-54.613333-33.706667 47.36-87.04 58.88l30.293334 38.4s88.746667 5.546667 148.48-71.68c0 0 4.693333-132.266667-68.693334-285.44 0 0-65.28-49.92-137.386666-51.2l-7.253334 7.253333s76.8 22.613333 120.746667 61.866667c0 0-80.213333-49.066667-194.56-49.066667m-88.32 161.706667c27.733333 0 50.346667 24.32 49.92 54.186667 0 29.44-22.186667 54.186667-49.92 54.186666-27.306667 0-49.493333-24.746667-49.493333-54.186666 0-29.866667 21.76-54.186667 49.493333-54.186667m177.92 0c27.733333 0 49.92 24.32 49.92 54.186667 0 29.44-22.186667 54.186667-49.92 54.186666-27.306667 0-49.493333-24.746667-49.493333-54.186666 0-29.866667 21.76-54.186667 49.493333-54.186667z" fill="" p-id="1352"></path></svg>