<!-- Generated by IcoMoon.io -->
<svg version="1.1" xmlns="http://www.w3.org/2000/svg" width="20" height="20" viewBox="0 0 20 20">
<title>lego-copy</title>
<path d="M2 6h16c1.105 0 2 0.895 2 2v9c0 1.105-0.895 2-2 2h-16c-1.105 0-2-0.895-2-2v-9c0-1.105 0.895-2 2-2zM2 8v9h16v-9h-16z"></path>
<path d="M4 2h3c1.105 0 2 0.895 2 2v2c0 1.105-0.895 2-2 2h-3c-1.105 0-2-0.895-2-2v-2c0-1.105 0.895-2 2-2zM4 4v2h3v-2h-3z"></path>
<path d="M13 2h3c1.105 0 2 0.895 2 2v2c0 1.105-0.895 2-2 2h-3c-1.105 0-2-0.895-2-2v-2c0-1.105 0.895-2 2-2zM13 4v2h3v-2h-3z"></path>
</svg>
