<!-- Generated by IcoMoon.io -->
<svg version="1.1" xmlns="http://www.w3.org/2000/svg" width="20" height="20" viewBox="0 0 20 20">
<title>maclude-copy</title>
<path d="M10 20c-5.523 0-10-4.477-10-10s4.477-10 10-10c5.523 0 10 4.477 10 10s-4.477 10-10 10zM15.062 8.889l-5.679 0c-0.273 0-0.494 0.221-0.494 0.494l-0.001 1.235c0 0.273 0.221 0.494 0.494 0.494h3.458c0.273 0 0.494 0.221 0.494 0.494v0.247c0 0.393-0.156 0.77-0.434 1.047s-0.655 0.434-1.047 0.434h-4.692c-0.273 0-0.494-0.221-0.494-0.494v-4.691c0-0.818 0.663-1.481 1.481-1.481l6.913-0c0.273 0 0.494-0.221 0.494-0.494l0.001-1.234c0-0.273-0.221-0.494-0.494-0.494l-6.914 0c-2.045-0-3.704 1.658-3.704 3.703v6.913c0 0.273 0.221 0.494 0.494 0.494h7.284c1.841 0 3.333-1.492 3.333-3.333v-2.839c0-0.273-0.221-0.494-0.494-0.494v-0z"></path>
</svg>
