<!-- Generated by IcoMoon.io -->
<svg version="1.1" xmlns="http://www.w3.org/2000/svg" width="20" height="20" viewBox="0 0 20 20">
<title>Git-Copy</title>
<path d="M0 10.261c0-1.39 0.264-2.72 0.791-3.989s1.237-2.361 2.129-3.277c0.892-0.915 1.956-1.643 3.194-2.185 1.228-0.539 2.551-0.815 3.886-0.81 1.354 0 2.65 0.27 3.886 0.812s2.302 1.269 3.194 2.185c0.892 0.915 1.602 2.007 2.129 3.277 0.525 1.26 0.794 2.616 0.791 3.987 0 2.231-0.635 4.238-1.905 6.022s-2.9 3.023-4.892 3.717c-0.105 0-0.183-0.020-0.234-0.060s-0.082-0.080-0.088-0.12c-0.008-0.060-0.011-0.12-0.010-0.18-0.010-0.018-0.017-0.039-0.019-0.060v-2.585c0-0.814-0.28-1.509-0.84-2.084 1.497-0.267 2.617-0.838 3.359-1.713s1.114-1.934 1.114-3.177c0-1.163-0.365-2.171-1.094-3.026 0.261-0.855 0.215-1.757-0.136-2.706-0.365-0.027-0.762 0.037-1.192 0.191s-0.748 0.297-0.957 0.43c-0.208 0.134-0.397 0.261-0.566 0.381-0.755-0.214-1.599-0.321-2.529-0.321-0.932 0-1.768 0.107-2.51 0.321-0.143-0.107-0.31-0.224-0.498-0.351s-0.517-0.281-0.986-0.461c-0.468-0.181-0.892-0.258-1.27-0.23-0.365 0.962-0.403 1.877-0.117 2.745-0.716 0.855-1.074 1.864-1.074 3.026 0 1.243 0.365 2.299 1.094 3.167s1.849 1.443 3.359 1.724c-0.387 0.381-0.658 0.868-0.781 1.404-1.107 0.28-1.882 0.079-2.325-0.602-0.821-1.229-1.556-1.67-2.207-1.322-0.092 0.093-0.078 0.19 0.039 0.291s0.293 0.234 0.528 0.401c0.234 0.168 0.41 0.351 0.527 0.551 0.013 0.027 0.049 0.124 0.108 0.291 0.056 0.161 0.115 0.321 0.175 0.481 0.058 0.154 0.169 0.324 0.332 0.511s0.352 0.344 0.566 0.471c0.215 0.126 0.511 0.22 0.888 0.281s0.807 0.063 1.289 0.010v2.014c0 0.020-0.003 0.053-0.010 0.101-0.006 0.046-0.019 0.079-0.039 0.099s-0.046 0.040-0.079 0.061c-0.039 0.021-0.082 0.032-0.126 0.030-0.052 0-0.117-0.007-0.195-0.020-1.979-0.708-3.59-1.948-4.834-3.718s-1.865-3.764-1.865-5.981v-0.001z"></path>
</svg>
