<!-- Generated by IcoMoon.io -->
<svg version="1.1" xmlns="http://www.w3.org/2000/svg" width="20" height="20" viewBox="0 0 20 20">
<title>guide-copy-2</title>
<path d="M0 2c0-0.552 0.448-1 1-1h5c2.438 0 4.148 1.282 4.949 3.684 0.034 0.102 0.051 0.209 0.051 0.316v13c0 1.055-1.423 1.391-1.894 0.447-0.503-1.006-1.165-1.447-2.106-1.447h-6c-0.552 0-1-0.448-1-1v-14zM2 3v12h5c0.741 0 1.411 0.165 2 0.484v-10.315c-0.542-1.495-1.487-2.169-3-2.169h-4z"></path>
<path d="M20 2c0-0.552-0.448-1-1-1h-5c-2.438 0-4.148 1.282-4.949 3.684-0.034 0.102-0.051 0.209-0.051 0.316v13c0 1.055 1.423 1.391 1.894 0.447 0.503-1.006 1.165-1.447 2.106-1.447h6c0.552 0 1-0.448 1-1v-14zM18 3v12h-5c-0.741 0-1.411 0.165-2 0.484v-10.315c0.542-1.495 1.487-2.169 3-2.169h4z"></path>
</svg>
