<?xml version="1.0" standalone="no"?><!DOCTYPE svg PUBLIC "-//W3C//DTD SVG 1.1//EN" "http://www.w3.org/Graphics/SVG/1.1/DTD/svg11.dtd"><svg t="1585903121070" class="icon" viewBox="0 0 1024 1024" version="1.1" xmlns="http://www.w3.org/2000/svg" p-id="55566" xmlns:xlink="http://www.w3.org/1999/xlink" width="260" height="260"><defs><style type="text/css"></style></defs><path d="M371.2 98.8c-10.4 3.8-17.2 9-22.6 17.2-6.8 9.8-8.6 18.8-8.6 42.4v21.4l-121.4 0.6c-114.2 0.6-122 0.8-128.6 4.4-16.8 8.8-24.8 22-24.8 40.2 0 17.8 8 31.2 23.8 39.6l8 4.4 202.6 0.6 202.6 0.4-1.4 4.6c-5.6 18.6-26.8 68-45.8 106.4-19.6 40-55.8 103-59 103-1.6 0-30.2-40.8-47.6-68-8.8-13.8-22.4-37.4-30.4-52.6-16.2-30.8-22.6-37.4-39.6-41.2-24.8-5.2-47 9.6-52.6 35-2 8.8-1.8 12 1.2 21.8 8 25 53.4 99.8 92.8 152.6 17.6 23.6 18.4 25 15.4 29.2-5.8 9-66.6 68.6-91.2 89.4-30 25.4-59.6 47.6-81.2 60.8-19.8 12.2-24.2 16-29.4 26-5.8 11-5.8 29 0 40 8.4 15.8 21.6 23.8 39.6 23.8 13.6 0 20-2.8 47-20.6 46.6-30.6 94.2-70.2 143.2-119.4l34-34.2 22 21.2c28 27.4 51.6 47.4 61.8 52.8 10.4 5.4 29 5.8 39 0.6 16.6-8.8 24.8-22 24.8-40.2 0-17-5.2-25.6-25.2-42.2-22.2-18.2-64-60.2-63.2-63.2 0.4-1.4 9.2-15.6 19.8-31.6 10.6-16 25-38.8 32-51 27.8-48.6 62.6-126.4 82.2-183.4l6.6-19.4 38-0.6c34.4-0.6 38.8-1 46-5 15.8-8.4 23.8-21.8 23.8-39.6 0-18.2-8-31.4-24.8-40.2-6.6-3.6-14.4-3.8-128.4-4.4l-121.2-0.6-0.8-25.4c-0.8-26.6-2.6-33.4-12.4-44-10.4-11.6-31.6-16.8-46-11.6zM723.2 406.8c-9.4 3.6-16.6 8.6-21.8 15.6-4.8 6.4-186.8 447-188.4 456.4-4.8 25.2 18.4 51.4 45.2 51.2 8 0 22.8-6.4 29.4-12.6 6.4-5.8 10.6-14.6 30.4-63l16.6-40.4h204.8l18.8 45.2c20.2 49.4 23.6 55.4 33.6 62.2 30.2 20.4 69.2-0.2 69-36.4-0.2-11.2-6.2-26.6-88.6-226-99-239.4-96.8-234.2-102.8-240.6-10.8-11.6-31.8-16.8-46.2-11.6z m45.8 236.2c17.2 41.8 31.8 77.2 32.4 78.4 0.8 2-12.8 2.6-64.4 2.6-36 0-65-0.8-64.6-1.8 6-15.4 64.6-156 64.8-155.6 0.2 0.2 14.4 34.6 31.8 76.4z" p-id="55567"></path></svg>