<svg xmlns="http://www.w3.org/2000/svg" viewBox="0 0 738 166.85"><defs><style>.cls-1{fill:#648cc9;}.cls-1,.cls-2{fill-rule:evenodd;}.cls-2{fill:#ec727d;}</style></defs><title>RSuite-Blue</title><g id="图层_2" data-name="图层 2"><g id="图层_1-2" data-name="图层 1"><path class="cls-1" d="M276.3,128.79l-8.78-24.05c-2.6-6.92-6.87-13.91-14.32-16.23l-.54-.17V86.91l.63-.12a27.21,27.21,0,0,0,8.45-3,23.33,23.33,0,0,0,6.33-5.13,21.74,21.74,0,0,0,4-7,25.74,25.74,0,0,0,1.39-8.62,27.42,27.42,0,0,0-2.09-10.54,23,23,0,0,0-6.16-8.66,19.1,19.1,0,0,0-5-3.16A27.16,27.16,0,0,0,254.57,39a45.53,45.53,0,0,0-6.29-.75c-2.33-.12-4.66-.17-7-.17H201.17v90.7h10.67V89.38h23.43a21.73,21.73,0,0,1,7,1.11,21,21,0,0,1,6,3.17,22.62,22.62,0,0,1,4.69,4.79,25.22,25.22,0,0,1,3.25,6.11l8.5,24.22ZM211.84,79.88V46.73h30c5.11,0,11.13.74,15.29,4,3.92,3,5.19,7.61,5.19,12.39A21.22,21.22,0,0,1,261,70.85a11.74,11.74,0,0,1-4.11,5.3,18.21,18.21,0,0,1-7,2.87,49.74,49.74,0,0,1-9.91.85ZM365.68,62.66H376a26,26,0,0,0-2.7-10.49,24.91,24.91,0,0,0-7.06-8.49,32.42,32.42,0,0,0-10.79-5.33,49.42,49.42,0,0,0-13.93-1.88,43.18,43.18,0,0,0-13.15,1.9,32.34,32.34,0,0,0-10.14,5.19,23.15,23.15,0,0,0-6.49,7.83,21.63,21.63,0,0,0-2.3,9.91,21.42,21.42,0,0,0,1.67,8.77,18.81,18.81,0,0,0,5.14,6.67,33.27,33.27,0,0,0,9,5.19,81.69,81.69,0,0,0,13.26,4c4.53,1,9.12,2,13.58,3.26a41.36,41.36,0,0,1,9,3.6,13.52,13.52,0,0,1,5.18,4.92,14.88,14.88,0,0,1-.14,13.72,15.7,15.7,0,0,1-4.86,5.22,23.47,23.47,0,0,1-7.5,3.26,39,39,0,0,1-9.59,1.1,41.14,41.14,0,0,1-10.19-1.19,25.85,25.85,0,0,1-8.53-3.84,21.47,21.47,0,0,1-6.11-6.58,21.88,21.88,0,0,1-2.85-8.71H306.33A32.65,32.65,0,0,0,309,112.19a26.86,26.86,0,0,0,7.19,9.62A33.59,33.59,0,0,0,328,128.13a56.44,56.44,0,0,0,16.87,2.25,42.84,42.84,0,0,0,13.45-2A33.71,33.71,0,0,0,369,122.78a25.18,25.18,0,0,0,6.92-8.52,24.08,24.08,0,0,0,2.47-10.84,23.33,23.33,0,0,0-1.54-8.84A20.71,20.71,0,0,0,372.6,88a26.14,26.14,0,0,0-6.26-4.75,49.13,49.13,0,0,0-7.7-3.41,76.74,76.74,0,0,0-8.43-2.39c-2.82-.62-5.65-1.23-8.48-1.81a98.6,98.6,0,0,1-10.22-2.57,29.07,29.07,0,0,1-6.72-2.95A10.36,10.36,0,0,1,321,66.21a12.26,12.26,0,0,1-1.08-5.34,12.65,12.65,0,0,1,5.89-10.94c4.61-3.15,10.8-4,16.25-4,12,0,21.87,4.05,23.61,16.7ZM484.34,38.09H473.58V90.42A61,61,0,0,1,472,105.64a22.12,22.12,0,0,1-4.76,9.41,16.22,16.22,0,0,1-7.88,4.71A41.13,41.13,0,0,1,448.83,121a40.65,40.65,0,0,1-10.46-1.19,16.44,16.44,0,0,1-7.88-4.65,22.37,22.37,0,0,1-4.83-9.39A58.79,58.79,0,0,1,424,90.42V38.09H413.34V90.63q0,4.68.31,9.35a49.12,49.12,0,0,0,1.48,9.16,33.41,33.41,0,0,0,3.4,8.3,22.08,22.08,0,0,0,6.16,6.71,30.63,30.63,0,0,0,9.82,4.58,53.39,53.39,0,0,0,14.32,1.66c5.78,0,12.09-.57,17.51-2.69A25,25,0,0,0,477.13,120a30.39,30.39,0,0,0,5.58-12.43,79.3,79.3,0,0,0,1.63-16.91V38.09Zm50.91,90.7V38.09H524.63v90.7ZM639.5,47.52V38.09H567.93v9.43h30.34v81.27h10.67V47.52ZM738,128.79v-9.43H681.32V86.52h51V77.09h-51V47.52H735.9V38.09H670.65v90.7Z"/><polygon class="cls-2" points="144.5 50.57 144.5 41.71 139.03 38.56 81.41 72.19 134.59 131.11 135.39 130.4 144.5 125.14 144.5 58.78 131.89 66.22 131.89 108.5 102.02 75.37 144.5 50.57"/><polygon class="cls-2" points="9.99 35.95 9.98 35.95 9.98 35.95 9.98 35.95 0 41.71 0 111.47 12.61 104.04 12.61 58.47 44.44 93.78 0 119.72 0 125.14 8.43 130.01 65.06 96.94 9.99 35.95"/><polygon class="cls-1" points="37.16 34.82 118.89 125.37 118.9 125.36 127.56 134.92 72.25 166.85 10.94 131.46 23.48 124.14 72.25 152.29 107.26 132.08 25.53 41.53 25.51 41.55 16.85 31.98 72.25 0 136.52 37.11 123.98 44.43 72.25 14.56 37.16 34.82"/></g></g></svg>