<?xml version="1.0" standalone="no"?><!DOCTYPE svg PUBLIC "-//W3C//DTD SVG 1.1//EN" "http://www.w3.org/Graphics/SVG/1.1/DTD/svg11.dtd"><svg t="1585902834936" class="icon" viewBox="0 0 1024 1024" version="1.1" xmlns="http://www.w3.org/2000/svg" p-id="51724" xmlns:xlink="http://www.w3.org/1999/xlink" width="260" height="260"><defs><style type="text/css"></style></defs><path d="M265.1 509.8c-0.1 45.5-36.8 82.2-82.4 82.1-45.4-0.1-82.3-37-82.2-82.5 0-45.3 37.1-82.2 82.6-82.1 45.4 0.1 82 36.9 82 82.5z m577-82.4c45.5 0 82.5 36.8 82.5 82.2 0.1 45.4-36.8 82.4-82.3 82.4-45.6 0-82.4-36.6-82.4-82.2s36.6-82.4 82.2-82.4zM512.4 592c-45.4 0-82.6-37.3-82.4-82.4 0.3-45.5 37.1-82.2 82.6-82.2 45.4 0 82.5 37.1 82.3 82.4-0.1 45.4-37 82.2-82.5 82.2z" p-id="51725"></path></svg>