<?xml version="1.0" standalone="no"?><!DOCTYPE svg PUBLIC "-//W3C//DTD SVG 1.1//EN" "http://www.w3.org/Graphics/SVG/1.1/DTD/svg11.dtd">
<svg
  t="1627383757319"
  class="icon"
  viewBox="0 0 1058 1024"
  version="1.1"
  xmlns="http://www.w3.org/2000/svg"
  p-id="1239"
  xmlns:xlink="http://www.w3.org/1999/xlink"
  width="132.25"
  height="128"
>
  <path
    d="M543.411484 537.804858l-23.432823-23.432824 62.822968 140.021901 129.527446-129.527446L477.282044 419.346904l19.551313 43.702935 60.666573 60.666573c3.881511 3.881511 3.881511 10.206935 0 14.232205-3.881511 3.737751-10.206935 3.737751-14.088446-0.143759z m21.276428-290.394497l10.781974 10.781974 162.879686 77.773971-131.108803-131.108802-42.552857 42.552857z m162.879686-7.044223L649.649867 162.448407l-28.320652 28.320651 134.559034 134.559034c1.868875 1.868875 2.875193 4.456549 2.875193 7.044223s-1.006318 5.175347-2.875193 7.044223c-1.437597 1.437597-3.162712 2.156395-5.031587 2.587674l97.612803 46.578127 155.404184-155.260424c15.669802-15.669802 15.669802-40.971501 0-56.641303L848.038186 20.70139c-15.669802-15.669802-40.971501-15.669802-56.641303 0l-70.873508 70.873508 134.559034 134.559034c3.881511 3.881511 3.881511 10.206935 0 14.232206-1.868875 1.868875-4.456549 2.875193-7.044223 2.875193s-5.175347-1.006318-7.044223-2.875193l-134.702794-134.559034-42.552856 42.552857 77.917731 77.917731c2.587674 2.443914 3.737751 6.181665 2.875193 9.775656-0.862558 3.593991-3.593991 6.325425-7.187983 7.187983s-7.187983-0.287519-9.775656-2.875193zM295.426085 516.528429L267.105433 544.84908l77.917731 77.917732c1.868875 1.868875 2.875193 4.456549 2.875193 7.044223 0 2.731433-1.006318 5.175347-2.875193 7.044223-3.881511 3.881511-10.206935 3.881511-14.232205 0l-77.917731-77.917732-42.552857 42.552857 134.559034 134.559034c3.881511 3.881511 3.881511 10.206935 0 14.232206-3.881511 3.881511-10.206935 3.881511-14.232206 0l-134.559034-134.559034-28.320651 28.320651 77.917731 77.917732c1.868875 1.868875 2.875193 4.456549 2.875193 7.044222s-1.006318 5.175347-2.875193 7.044223c-3.881511 3.881511-10.206935 3.881511-14.232206 0l-77.917731-77.917731-42.552857 42.552857 134.559034 134.559034c1.868875 1.868875 2.875193 4.456549 2.875193 7.044223s-1.006318 5.175347-2.875193 7.044223c-3.881511 3.881511-10.206935 3.881511-14.232205 0l-134.559034-134.559034-84.961955 84.961954c-15.669802 15.669802-15.669802 40.971501 0 56.641303l155.835463 155.835463c15.669802 15.669802 40.971501 15.669802 56.641303 0l220.814825-220.814826-116.014039-241.228695-33.639758-33.639759z"
    p-id="1240"
  ></path>
  <path
    d="M984.178576 553.618419l-5.750386-17.251158c-11.644532-46.721887-43.127896-65.410642-43.127895-65.410642L820.867612 416.184192l-175.386775-83.811877-46.290608-22.138986-65.98568-31.627124-65.841921-31.483364c6.469184-12.50709-4.600309-25.589218-4.600309-25.589218L295.713604 54.484908l-53.478591 53.478591L149.510038 15.238523C137.434227 3.162712 126.939773 0 119.176751 0c-8.33806 0-13.225888 3.593991-13.225888 3.593991L88.555946 20.988909l-13.369648 13.369648-13.369648 13.369647s-17.538678 22.570265 7.475502 47.584445l92.724976 92.724976L108.538537 241.516215l167.048716 167.048716s8.1943 4.887828 17.394917 4.887828c3.306472 0 6.756704-0.575039 10.206936-2.300155l31.627123 65.841921 46.865647 97.469044 26.308016 54.628667 64.835603 134.846554 55.203706 114.288923s19.263793 30.908325 65.98568 42.552857l20.270111 6.612944 41.690299 44.277973c12.938369 13.657167 21.851467 20.84515 25.445459 20.845149 2.731433 0 2.300154-4.31279-2.300155-13.225888l-18.544995-36.658711 13.225888 4.31279L554.912256 682.283308l-108.107258-241.084937-23.001544-51.322195-0.431279-1.006318-2.300155-5.031588 20.70139-20.845149 5.031588 2.156395 16.3886 7.331742 51.465956 23.289063 225.415134 101.206795L1004.879966 616.010108l-6.469184-19.551313 43.990453 21.276429s23.864102-11.213253 13.800927-28.033132l-72.023586-36.083673z"
    p-id="1241"
  ></path>
</svg>
