<!-- Generated by IcoMoon.io -->
<svg version="1.1" xmlns="http://www.w3.org/2000/svg" width="20" height="20" viewBox="0 0 20 20">
<title>search-copy</title>
<path d="M7.5 15c4.142 0 7.5-3.358 7.5-7.5s-3.358-7.5-7.5-7.5c-4.142 0-7.5 3.358-7.5 7.5s3.358 7.5 7.5 7.5zM7.5 13c-3.038 0-5.5-2.462-5.5-5.5s2.462-5.5 5.5-5.5c3.038 0 5.5 2.462 5.5 5.5s-2.462 5.5-5.5 5.5z"></path>
<path d="M19.707 18.293l-6.5-6.5c-0.391-0.391-1.024-0.391-1.414 0s-0.391 1.024 0 1.414l6.5 6.5c0.391 0.391 1.024 0.391 1.414 0s0.391-1.024 0-1.414z"></path>
</svg>
