<!-- Generated by IcoMoon.io -->
<svg version="1.1" xmlns="http://www.w3.org/2000/svg" width="20" height="20" viewBox="0 0 20 20">
<title>color-card</title>
<path d="M1 0h7c0.552 0 1 0.448 1 1v14.5c0 2.485-2.015 4.5-4.5 4.5s-4.5-2.015-4.5-4.5v-14.5c0-0.552 0.448-1 1-1zM2 2v13.5c0 1.381 1.119 2.5 2.5 2.5s2.5-1.119 2.5-2.5v-13.5h-5z"></path>
<path d="M4 14c0.552 0 1 0.448 1 1s-0.448 1-1 1c-0.552 0-1-0.448-1-1s0.448-1 1-1z"></path>
<path d="M14.111 1.394l4.957 4.957c0.391 0.391 0.391 1.024 0 1.414l-9.975 9.975c-0.092 0.092-0.201 0.165-0.32 0.215l-3.364 1.411c-0.509 0.214-1.095-0.026-1.309-0.536-0.051-0.122-0.078-0.254-0.078-0.387 0-0.165 0-0.331 0-0.496 2 0 3-1 3-3 0-2.526 0-5.053 0-7.579 0-0.269 0.108-0.527 0.301-0.715l5.382-5.267c0.392-0.383 1.019-0.38 1.407 0.008zM13.396 3.508l-4.374 4.281v7.159c0 0.012-0 0.024-0 0.036l7.925-7.925-3.551-3.551z"></path>
<path d="M13.414 11h5.586c0.552 0 1 0.448 1 1v7c0 0.552-0.448 1-1 1h-14c-0.552 0-1-0.448-1-1 0-0.333 0-0.667 0-1 1.333 0 2.333-0.333 3-1l5.707-5.707c0.188-0.188 0.442-0.293 0.707-0.293zM8.828 18h9.172v-5h-4.172l-5 5z"></path>
</svg>
