<?xml version="1.0" encoding="UTF-8"?>
<svg width="16px" height="16px" viewBox="0 0 16 16" version="1.1" xmlns="http://www.w3.org/2000/svg" xmlns:xlink="http://www.w3.org/1999/xlink">
    <title>Icon/status/check-round</title>
    <g id="Icon/status/check-round" stroke="none" stroke-width="1" fill="none" fill-rule="evenodd">
        <path d="M8,0 C12.418278,0 16,3.581722 16,8 C16,12.418278 12.418278,16 8,16 C3.581722,16 0,12.418278 0,8 C0,3.581722 3.581722,0 8,0 Z M12.7071068,4.29289322 C12.3165825,3.90236893 11.6834175,3.90236893 11.2928932,4.29289322 L11.2928932,4.29289322 L6,9.58578644 L3.70710678,7.29289322 C3.31658249,6.90236893 2.68341751,6.90236893 2.29289322,7.29289322 C1.90236893,7.68341751 1.90236893,8.31658249 2.29289322,8.70710678 L2.29289322,8.70710678 L5.29289322,11.7071068 C5.68341751,12.0976311 6.31658249,12.0976311 6.70710678,11.7071068 L6.70710678,11.7071068 L12.7071068,5.70710678 C13.0976311,5.31658249 13.0976311,4.68341751 12.7071068,4.29289322 Z" id="Combined-Shape" fill="#575757"></path>
    </g>
</svg>