<?xml version="1.0" encoding="UTF-8"?>
<svg width="16px" height="16px" viewBox="0 0 16 16" version="1.1" xmlns="http://www.w3.org/2000/svg" xmlns:xlink="http://www.w3.org/1999/xlink">
    <!-- Generator: Sketch 58 (84663) - https://sketch.com -->
    <title>attachment</title>
    <desc>Created with Sketch.</desc>
    <g id="attachment" stroke="none" stroke-width="1" fill="none" fill-rule="evenodd">
        <rect id="Rectangle-29" fill="#575757" x="4" y="3" width="1" height="9"></rect>
        <path d="M6.5,11 C6.5,12 7.25,12.5 8,12.5 C8.75,12.5 9.5,12 9.5,11" id="Oval" stroke="#575757"></path>
        <path d="M9.5,3 C9.5,1.5 8.5,0.5 7,0.5 C5.5,0.5 4.5,1.5 4.5,3" id="Oval-Copy" stroke="#575757"></path>
        <path d="M4.5,12 C4.5,14 6,15.5 8,15.5 C10,15.5 11.5,14 11.5,12" id="Oval-Copy-2" stroke="#575757"></path>
        <rect id="Rectangle-29-Copy" fill="#575757" x="6" y="5" width="1" height="6"></rect>
        <rect id="Rectangle-29-Copy-3" fill="#575757" x="11" y="5" width="1" height="7"></rect>
        <rect id="Rectangle-29-Copy-2" fill="#575757" x="9" y="3" width="1" height="8"></rect>
    </g>
</svg>