<?xml version="1.0" encoding="UTF-8"?>
<svg width="14px" height="14px" viewBox="0 0 14 14" version="1.1" xmlns="http://www.w3.org/2000/svg" xmlns:xlink="http://www.w3.org/1999/xlink">
    <title>edit-14</title>
    <g id="edit-14" stroke="none" stroke-width="1" fill="none" fill-rule="evenodd">
        <rect id="Path" fill="#000000" x="1" y="13" width="12" height="1" rx="0.5"></rect>
        <path d="M11.5501551,0.77066018 L12.2572619,1.47776696 C12.8430483,2.0635534 12.8747065,2.98164262 12.3279725,3.52837663 L10.7042135,5.15074247 L9.99721354,4.44374247 L11.6208658,2.82126985 C11.7657567,2.67637893 11.755903,2.39062163 11.5501551,2.18487374 L10.8430483,1.47776696 C10.6373004,1.27201907 10.3515431,1.26216537 10.2066522,1.40705628 L3.50360875,8.11009973 L3.22076604,9.807156 L4.91782232,9.52431329 L8.65421354,5.78674247 L9.36121354,6.49374247 L5.39832609,10.4580231 L2.00421354,11.0237085 L2.56989896,7.62959596 L9.49954542,0.699949502 C10.0462794,0.153215494 10.9643686,0.184873742 11.5501551,0.77066018 Z" id="Combined-Shape" fill="#000000" fill-rule="nonzero"></path>
    </g>
</svg>