<?xml version="1.0" encoding="UTF-8"?>
<svg width="16px" height="16px" viewBox="0 0 16 16" version="1.1" xmlns="http://www.w3.org/2000/svg" xmlns:xlink="http://www.w3.org/1999/xlink">
    <title>search</title>
    <g id="search" stroke="none" stroke-width="1" fill="none" fill-rule="evenodd">
        <path d="M6.5,1 C9.53756612,1 12,3.46243388 12,6.5 C12,9.53756612 9.53756612,12 6.5,12 C3.46243388,12 1,9.53756612 1,6.5 C1,3.46243388 3.46243388,1 6.5,1 Z M6.5,2 C4.01471863,2 2,4.01471863 2,6.5 C2,8.98528137 4.01471863,11 6.5,11 C8.98528137,11 11,8.98528137 11,6.5 C11,4.01471863 8.98528137,2 6.5,2 Z" id="Oval" fill="#000000" fill-rule="nonzero"></path>
        <path d="M9.64644661,9.64644661 C9.82001296,9.47288026 10.0894374,9.45359511 10.2843055,9.58859116 L10.3535534,9.64644661 L14.8535534,14.1464466 C15.0488155,14.3417088 15.0488155,14.6582912 14.8535534,14.8535534 C14.679987,15.0271197 14.4105626,15.0464049 14.2156945,14.9114088 L14.1464466,14.8535534 L9.64644661,10.3535534 C9.45118446,10.1582912 9.45118446,9.84170876 9.64644661,9.64644661 Z" id="Line-2" fill="#000000" fill-rule="nonzero"></path>
    </g>
</svg>