<?xml version="1.0" encoding="UTF-8"?>
<svg width="16px" height="16px" viewBox="0 0 16 16" version="1.1" xmlns="http://www.w3.org/2000/svg" xmlns:xlink="http://www.w3.org/1999/xlink">
    <title>Icon/close</title>
    <g id="Icon/close" stroke="none" stroke-width="1" fill="none" fill-rule="evenodd">
        <path d="M2.7843055,2.08859116 L2.85355339,2.14644661 L8,7.293 L13.1464466,2.14644661 C13.3417088,1.95118446 13.6582912,1.95118446 13.8535534,2.14644661 C14.0271197,2.32001296 14.0464049,2.58943736 13.9114088,2.7843055 L13.8535534,2.85355339 L8.707,8 L13.8535534,13.1464466 C14.0488155,13.3417088 14.0488155,13.6582912 13.8535534,13.8535534 C13.679987,14.0271197 13.4105626,14.0464049 13.2156945,13.9114088 L13.1464466,13.8535534 L8,8.707 L2.85355339,13.8535534 C2.65829124,14.0488155 2.34170876,14.0488155 2.14644661,13.8535534 C1.97288026,13.679987 1.95359511,13.4105626 2.08859116,13.2156945 L2.14644661,13.1464466 L7.293,8 L2.14644661,2.85355339 C1.95118446,2.65829124 1.95118446,2.34170876 2.14644661,2.14644661 C2.32001296,1.97288026 2.58943736,1.95359511 2.7843055,2.08859116 Z" id="Path" fill="#575757" fill-rule="nonzero"></path>
    </g>
</svg>