<svg viewBox="0 0 290 141" version="1.1" xmlns="http://www.w3.org/2000/svg" xmlns:xlink="http://www.w3.org/1999/xlink" id="rkh1wxmRz"><style>@-webkit-keyframes rk3xnJwe70f_rkYqa_U0G_Animation{35%{-webkit-transform: scale(1, 1);transform: scale(1, 1);}38.33%{-webkit-transform: scale(1, 0);transform: scale(1, 0);}40%{-webkit-transform: scale(1, 1);transform: scale(1, 1);}0%{-webkit-transform: scale(1, 1);transform: scale(1, 1);}100%{-webkit-transform: scale(1, 1);transform: scale(1, 1);}}@keyframes rk3xnJwe70f_rkYqa_U0G_Animation{35%{-webkit-transform: scale(1, 1);transform: scale(1, 1);}38.33%{-webkit-transform: scale(1, 0);transform: scale(1, 0);}40%{-webkit-transform: scale(1, 1);transform: scale(1, 1);}0%{-webkit-transform: scale(1, 1);transform: scale(1, 1);}100%{-webkit-transform: scale(1, 1);transform: scale(1, 1);}}@-webkit-keyframes r1yWnyvemCG_BkSzT_80f_Animation{35%{-webkit-transform: scale(1, 1);transform: scale(1, 1);}38.33%{-webkit-transform: scale(1, 0);transform: scale(1, 0);}40%{-webkit-transform: scale(1, 1);transform: scale(1, 1);}0%{-webkit-transform: scale(1, 1);transform: scale(1, 1);}100%{-webkit-transform: scale(1, 1);transform: scale(1, 1);}}@keyframes r1yWnyvemCG_BkSzT_80f_Animation{35%{-webkit-transform: scale(1, 1);transform: scale(1, 1);}38.33%{-webkit-transform: scale(1, 0);transform: scale(1, 0);}40%{-webkit-transform: scale(1, 1);transform: scale(1, 1);}0%{-webkit-transform: scale(1, 1);transform: scale(1, 1);}100%{-webkit-transform: scale(1, 1);transform: scale(1, 1);}}@-webkit-keyframes rJXbnJPe7Af_BJdTt_I0f_Animation{0%{-webkit-transform: translate(0px, 0px);transform: translate(0px, 0px);}40%{-webkit-transform: translate(0px, -3px);transform: translate(0px, -3px);}75%{-webkit-transform: translate(0px, 0px);transform: translate(0px, 0px);}100%{-webkit-transform: translate(0px, 0px);transform: translate(0px, 0px);}}@keyframes rJXbnJPe7Af_BJdTt_I0f_Animation{0%{-webkit-transform: translate(0px, 0px);transform: translate(0px, 0px);}40%{-webkit-transform: translate(0px, -3px);transform: translate(0px, -3px);}75%{-webkit-transform: translate(0px, 0px);transform: translate(0px, 0px);}100%{-webkit-transform: translate(0px, 0px);transform: translate(0px, 0px);}}@-webkit-keyframes r1d-hkDgX0f_HJ7dF_LAf_Animation{0%{-webkit-transform: scale(1, 1);transform: scale(1, 1);}15%{-webkit-transform: scale(0.83, 1);transform: scale(0.83, 1);}30%{-webkit-transform: scale(0.83, 1);transform: scale(0.83, 1);}45%{-webkit-transform: scale(1, 1);transform: scale(1, 1);}100%{-webkit-transform: scale(1, 1);transform: scale(1, 1);}}@keyframes r1d-hkDgX0f_HJ7dF_LAf_Animation{0%{-webkit-transform: scale(1, 1);transform: scale(1, 1);}15%{-webkit-transform: scale(0.83, 1);transform: scale(0.83, 1);}30%{-webkit-transform: scale(0.83, 1);transform: scale(0.83, 1);}45%{-webkit-transform: scale(1, 1);transform: scale(1, 1);}100%{-webkit-transform: scale(1, 1);transform: scale(1, 1);}}@-webkit-keyframes ry6Z2JweQAG_Hys-FdLAf_Animation{0%{-webkit-transform: translate(0px, 0px);transform: translate(0px, 0px);}15%{-webkit-transform: translate(8px, 0px);transform: translate(8px, 0px);}30%{-webkit-transform: translate(8px, 0px);transform: translate(8px, 0px);}45%{-webkit-transform: translate(0px, 0px);transform: translate(0px, 0px);}100%{-webkit-transform: translate(0px, 0px);transform: translate(0px, 0px);}}@keyframes ry6Z2JweQAG_Hys-FdLAf_Animation{0%{-webkit-transform: translate(0px, 0px);transform: translate(0px, 0px);}15%{-webkit-transform: translate(8px, 0px);transform: translate(8px, 0px);}30%{-webkit-transform: translate(8px, 0px);transform: translate(8px, 0px);}45%{-webkit-transform: translate(0px, 0px);transform: translate(0px, 0px);}100%{-webkit-transform: translate(0px, 0px);transform: translate(0px, 0px);}}@-webkit-keyframes S1L2JvemCG_HklOvOU0G_Animation{0%{-webkit-transform: translate(0px, -3px);transform: translate(0px, -3px);}50%{-webkit-transform: translate(0px, 3px);transform: translate(0px, 3px);}100%{-webkit-transform: translate(0px, -3px);transform: translate(0px, -3px);}}@keyframes S1L2JvemCG_HklOvOU0G_Animation{0%{-webkit-transform: translate(0px, -3px);transform: translate(0px, -3px);}50%{-webkit-transform: translate(0px, 3px);transform: translate(0px, 3px);}100%{-webkit-transform: translate(0px, -3px);transform: translate(0px, -3px);}}@-webkit-keyframes rki2kvx7Az_Sy0jHdUCG_Animation{0%{-webkit-transform: scale(1, 1);transform: scale(1, 1);}35%{-webkit-transform: scale(0.76, 1);transform: scale(0.76, 1);}40%{-webkit-transform: scale(0.73, 1);transform: scale(0.73, 1);}75%{-webkit-transform: scale(1, 1);transform: scale(1, 1);}100%{-webkit-transform: scale(1, 1);transform: scale(1, 1);}}@keyframes rki2kvx7Az_Sy0jHdUCG_Animation{0%{-webkit-transform: scale(1, 1);transform: scale(1, 1);}35%{-webkit-transform: scale(0.76, 1);transform: scale(0.76, 1);}40%{-webkit-transform: scale(0.73, 1);transform: scale(0.73, 1);}75%{-webkit-transform: scale(1, 1);transform: scale(1, 1);}100%{-webkit-transform: scale(1, 1);transform: scale(1, 1);}}@-webkit-keyframes r1eenyDxXAz_B1kwrdI0G_Animation{0%{-webkit-transform: scale(1, 1);transform: scale(1, 1);}35%{-webkit-transform: scale(0.76, 1);transform: scale(0.76, 1);}40%{-webkit-transform: scale(0.73, 1);transform: scale(0.73, 1);}75%{-webkit-transform: scale(1, 1);transform: scale(1, 1);}100%{-webkit-transform: scale(1, 1);transform: scale(1, 1);}}@keyframes r1eenyDxXAz_B1kwrdI0G_Animation{0%{-webkit-transform: scale(1, 1);transform: scale(1, 1);}35%{-webkit-transform: scale(0.76, 1);transform: scale(0.76, 1);}40%{-webkit-transform: scale(0.73, 1);transform: scale(0.73, 1);}75%{-webkit-transform: scale(1, 1);transform: scale(1, 1);}100%{-webkit-transform: scale(1, 1);transform: scale(1, 1);}}@-webkit-keyframes S1XlhkvlXCM_r1DMH_8RG_Animation{0%{-webkit-transform: translate(0px, 0px);transform: translate(0px, 0px);}35%{-webkit-transform: translate(12px, 0px);transform: translate(12px, 0px);}40%{-webkit-transform: translate(12px, 0px);transform: translate(12px, 0px);}75%{-webkit-transform: translate(0px, 0px);transform: translate(0px, 0px);}100%{-webkit-transform: translate(0px, 0px);transform: translate(0px, 0px);}}@keyframes S1XlhkvlXCM_r1DMH_8RG_Animation{0%{-webkit-transform: translate(0px, 0px);transform: translate(0px, 0px);}35%{-webkit-transform: translate(12px, 0px);transform: translate(12px, 0px);}40%{-webkit-transform: translate(12px, 0px);transform: translate(12px, 0px);}75%{-webkit-transform: translate(0px, 0px);transform: translate(0px, 0px);}100%{-webkit-transform: translate(0px, 0px);transform: translate(0px, 0px);}}#rkh1wxmRz *{-webkit-animation-duration: 2s;animation-duration: 2s;-webkit-animation-iteration-count: infinite;animation-iteration-count: infinite;-webkit-animation-timing-function: cubic-bezier(0, 0, 1, 1);animation-timing-function: cubic-bezier(0, 0, 1, 1);}#H1gh1Pem0G{stroke: none;stroke-width: 1;fill: none;}#ByZ3kvgQCz{-webkit-transform:  translate(-539.000000px, -236.000000px);transform:  translate(-539.000000px, -236.000000px);}#S1MnJDl70M{-webkit-transform:  translate(539.000000px, 236.000000px);transform:  translate(539.000000px, 236.000000px);}#BkQhywx7AM{-webkit-transform:  translate(145.500000px, 23.000000px) scale(-1, 1) translate(-145.500000px, -23.000000px);transform:  translate(145.500000px, 23.000000px) scale(-1, 1) translate(-145.500000px, -23.000000px);}#BJEhkwlQRM{fill: #EBF9FF;}#S1B2kveQAG{stroke: #34C3FF;stroke-width: 3;}#S1L2JvemCG{-webkit-transform:  translate(0.000000px, 15.000000px);transform:  translate(0.000000px, 15.000000px);}#Hyw3yDe70G{-webkit-transform:  translate(98.000000px, 55.000000px) scale(-1, 1) translate(-98.000000px, -55.000000px);transform:  translate(98.000000px, 55.000000px) scale(-1, 1) translate(-98.000000px, -55.000000px);}#Sy_2yveXAz{fill: #FFFFFF;}#r1YnJPgmCG{stroke: #34C3FF;stroke-width: 3;}#HJ9hJwgXRf{-webkit-transform:  translate(0.000000px, 31.000000px);transform:  translate(0.000000px, 31.000000px);}#rki2kvx7Az{-webkit-transform:  translate(63.000000px, 1.000000px);transform:  translate(63.000000px, 1.000000px);}#Hy631vgQAf{fill: #FFFFFF;}#SkA2kwgXAf{stroke: #34C3FF;stroke-width: 2;}#SyJghyDxX0z{fill: #34C3FF;}#SJbxnyDgQRf{fill: #FFFFFF;}#S1zlhyPx7CM{stroke: #34C3FF;stroke-width: 2;}#S1Se3JDgX0G{fill: #FFFFFF;}#S1Ie3yvlm0G{stroke: #34C3FF;stroke-width: 3;}#H1dl3Jwlm0M{fill: #FFFFFF;}#HkFl31vgmAf{stroke: #34C3FF;stroke-width: 3;}#HJ5lnJPe7AM{fill: #EBF9FF;}#HJieh1Plm0f{fill: #EBF9FF;}#rk3xnJwe70f{-webkit-transform:  translate(17.000000px, 14.000000px);transform:  translate(17.000000px, 14.000000px);}#S16e21wxQCM{fill: #34C3FF;}#HkRg3JDxmCz{stroke: #34C3FF;stroke-width: 2;}#r1yWnyvemCG{-webkit-transform:  translate(59.000000px, 14.000000px);transform:  translate(59.000000px, 14.000000px);}#Byg-nyPxXAz{fill: #34C3FF;}#B1-Zhkwxm0G{stroke: #34C3FF;stroke-width: 2;}#H1zZh1vemAz{stroke: #34C3FF;stroke-width: 2;}#rJXbnJPe7Af{-webkit-transform:  translate(145.000000px, 68.000000px);transform:  translate(145.000000px, 68.000000px);}#BkSZhyPlQ0M{fill: #EBF9FF;}#SyU-3kvgXAG{stroke: #34C3FF;stroke-width: 3;}#rJDWnkDg70G{-webkit-transform:  translate(106.500000px, 34.000000px) scale(-1, 1) translate(-106.500000px, -34.000000px) translate(68.000000px, 14.000000px);transform:  translate(106.500000px, 34.000000px) scale(-1, 1) translate(-106.500000px, -34.000000px) translate(68.000000px, 14.000000px);}#r1d-hkDgX0f{-webkit-transform:  translate(25.000000px, 1.000000px);transform:  translate(25.000000px, 1.000000px);}#ryc-3JPlXAf{fill: #FFFFFF;}#BJiZ2Jvgm0z{stroke: #34C3FF;stroke-width: 2;}#B12bnJDlQ0M{fill: #34C3FF;}#Syyz2yPeQCz{fill: #FFFFFF;}#HkgGnkDeXAM{stroke: #34C3FF;stroke-width: 2;}#S1WGnkPeQCf{fill: #EBF9FF;}#HkMfhyvlXCM{-webkit-transform:  translate(19.000000px, 21.000000px) scale(-1, 1) translate(-19.000000px, -21.000000px) translate(16.000000px, 14.000000px);transform:  translate(19.000000px, 21.000000px) scale(-1, 1) translate(-19.000000px, -21.000000px) translate(16.000000px, 14.000000px);}#Hy7M2ywemCM{fill: #34C3FF;}#Hy4G2kvg7AG{stroke: #34C3FF;stroke-width: 2;}#rJSGnyPl7Af{stroke: #34C3FF;stroke-width: 2;}#HyLfh1PlmRG{stroke: #34C3FF;stroke-width: 2;-webkit-transform:  translate(49.239806px, 40.500000px) scale(1, -1) translate(-49.239806px, -40.500000px);transform:  translate(49.239806px, 40.500000px) scale(1, -1) translate(-49.239806px, -40.500000px);}#S1XlhkvlXCM_r1DMH_8RG{-webkit-animation-name: S1XlhkvlXCM_r1DMH_8RG_Animation;animation-name: S1XlhkvlXCM_r1DMH_8RG_Animation;-webkit-transform-origin: 50% 50%;transform-origin: 50% 50%;transform-box: fill-box;-webkit-transform: translate(0px, 0px);transform: translate(0px, 0px);-webkit-animation-timing-function: cubic-bezier(0.42, 0, 1, 1);animation-timing-function: cubic-bezier(0.42, 0, 1, 1);}#r1eenyDxXAz_B1kwrdI0G{-webkit-animation-name: r1eenyDxXAz_B1kwrdI0G_Animation;animation-name: r1eenyDxXAz_B1kwrdI0G_Animation;-webkit-transform-origin: 100% 50%;transform-origin: 100% 50%;transform-box: fill-box;-webkit-transform: scale(1, 1);transform: scale(1, 1);-webkit-animation-timing-function: cubic-bezier(0.42, 0, 1, 1);animation-timing-function: cubic-bezier(0.42, 0, 1, 1);}#rki2kvx7Az_Sy0jHdUCG{-webkit-animation-name: rki2kvx7Az_Sy0jHdUCG_Animation;animation-name: rki2kvx7Az_Sy0jHdUCG_Animation;-webkit-transform-origin: 100% 50%;transform-origin: 100% 50%;transform-box: fill-box;-webkit-transform: scale(1, 1);transform: scale(1, 1);-webkit-animation-timing-function: cubic-bezier(0.42, 0, 1, 1);animation-timing-function: cubic-bezier(0.42, 0, 1, 1);}#S1L2JvemCG_HklOvOU0G{-webkit-animation-name: S1L2JvemCG_HklOvOU0G_Animation;animation-name: S1L2JvemCG_HklOvOU0G_Animation;-webkit-transform-origin: 50% 50%;transform-origin: 50% 50%;transform-box: fill-box;-webkit-transform: translate(0px, -3px);transform: translate(0px, -3px);-webkit-animation-timing-function: cubic-bezier(0.42, 0, 1, 1);animation-timing-function: cubic-bezier(0.42, 0, 1, 1);}#ry6Z2JweQAG_Hys-FdLAf{-webkit-animation-name: ry6Z2JweQAG_Hys-FdLAf_Animation;animation-name: ry6Z2JweQAG_Hys-FdLAf_Animation;-webkit-transform-origin: 50% 50%;transform-origin: 50% 50%;transform-box: fill-box;-webkit-transform: translate(0px, 0px);transform: translate(0px, 0px);-webkit-animation-timing-function: cubic-bezier(0.42, 0, 0.58, 1);animation-timing-function: cubic-bezier(0.42, 0, 0.58, 1);}#r1d-hkDgX0f_HJ7dF_LAf{-webkit-animation-name: r1d-hkDgX0f_HJ7dF_LAf_Animation;animation-name: r1d-hkDgX0f_HJ7dF_LAf_Animation;-webkit-transform-origin: 100% 50%;transform-origin: 100% 50%;transform-box: fill-box;-webkit-transform: scale(1, 1);transform: scale(1, 1);-webkit-animation-timing-function: cubic-bezier(0.42, 0, 0.58, 1);animation-timing-function: cubic-bezier(0.42, 0, 0.58, 1);}#rJXbnJPe7Af_BJdTt_I0f{-webkit-animation-name: rJXbnJPe7Af_BJdTt_I0f_Animation;animation-name: rJXbnJPe7Af_BJdTt_I0f_Animation;-webkit-transform-origin: 50% 50%;transform-origin: 50% 50%;transform-box: fill-box;-webkit-transform: translate(0px, 0px);transform: translate(0px, 0px);}#r1yWnyvemCG_BkSzT_80f{-webkit-animation-name: r1yWnyvemCG_BkSzT_80f_Animation;animation-name: r1yWnyvemCG_BkSzT_80f_Animation;-webkit-transform-origin: 50% 50%;transform-origin: 50% 50%;transform-box: fill-box;-webkit-transform: scale(1, 1);transform: scale(1, 1);}#rk3xnJwe70f_rkYqa_U0G{-webkit-animation-name: rk3xnJwe70f_rkYqa_U0G_Animation;animation-name: rk3xnJwe70f_rkYqa_U0G_Animation;-webkit-transform-origin: 50% 50%;transform-origin: 50% 50%;transform-box: fill-box;-webkit-transform: scale(1, 1);transform: scale(1, 1);}</style>
    <!-- Generator: Sketch 49.2 (51160) - http://www.bohemiancoding.com/sketch -->
    <title>Group</title>
    <desc>Created with Sketch.</desc>
    <defs>
        <path d="M125,45.9283512 C117.143399,45.1738997 111,38.5543837 111,30.5 C111,21.9395864 117.939586,15 126.5,15 C126.724543,15 126.947971,15.0047747 127.170187,15.014228 C128.342651,6.52655726 135.430922,0 144,0 C151.180978,0 157.322043,4.58335201 159.813182,11.0632792 C160.203054,11.0214549 160.599021,11 161,11 C167.061118,11 171.977272,15.902172 171.999921,21.9579749 C176.697867,23.8417252 180,28.3000672 180,33.5 C180,40.0800286 174.712448,45.4725822 168,45.9635677 L168,46 L125,46 L125,45.9283512 Z" id="path-1"/>
        <path d="M50.6055046,109.931941 C31.298,108.764081 16,92.7123422 16,73.0821918 C16,52.6930493 32.5038521,36.1643836 52.8623853,36.1643836 C53.2243839,36.1643836 53.5851637,36.1696094 53.9446537,36.1799899 C56.5245732,15.7769572 73.9180125,0 94.9908257,0 C112.840087,0 128.049559,11.3192782 133.852958,27.1813784 C134.435228,27.1428548 135.022672,27.1232877 135.614679,27.1232877 C149.730478,27.1232877 161.251892,38.2478726 161.91483,52.220526 C172.558747,56.8641039 180,67.4932534 180,79.8630137 C180,96.0019277 167.333049,109.177869 151.412844,109.962984 L151.412844,110 L50.6055046,110 L50.6055046,109.931941 Z" id="path-2"/>
        <path d="M5,0 L50,22 C53.3333333,24.6666667 54.6666667,27.6666667 54,31 C53.3333333,34.3333333 50.6666667,36.3333333 46,37 L0,39 L5,0 Z" id="path-3"/>
        <path d="M26,1 L71,23 C74.3333333,25.6666667 75.6666667,28.6666667 75,32 C74.3333333,35.3333333 71.6666667,37.3333333 67,38 L21,40 L26,1 Z" id="path-4"/>
        <circle id="path-5" cx="62" cy="20" r="20"/>
        <circle id="path-6" cx="20" cy="20" r="20"/>
        <path d="M23,72.9548336 C10.1675732,72.1797994 0,61.5272817 0,48.5 C0,34.9690236 10.9690236,24 24.5,24 C24.7405966,24 24.9803832,24.0034681 25.2193125,24.010357 C26.9340132,10.4701643 38.4942877,0 52.5,0 C64.3632289,0 74.4719631,7.51188463 78.3290999,18.0385511 C78.7160969,18.0129854 79.106532,18 79.5,18 C88.8818423,18 96.5393674,25.3826791 96.9799783,34.65544 C104.054289,37.7370871 109,44.7909773 109,53 C109,63.7103702 100.581112,72.4544037 90,72.975435 L90,73 L23,73 L23,72.9548336 Z" id="path-7"/>
        <path d="M1,0 L46,15 C50,17 51.6666667,19.6666667 51,23 C50.3333333,26.3333333 48.3333333,28.3333333 45,29 L0,38 L1,0 Z" id="path-8"/>
        <circle id="path-9" cx="20" cy="20" r="20"/>
    </defs>
    <g id="H1gh1Pem0G" fill-rule="evenodd">
        <g id="ByZ3kvgQCz">
            <g id="S1MnJDl70M">
                <g id="BkQhywx7AM">
                    <use fill-rule="evenodd" xlink:href="#path-1" id="BJEhkwlQRM"/>
                    <path d="M125.817982,44.5 L167.447134,44.5 L167.890574,44.4675643 C173.867989,44.0303433 178.5,39.24599 178.5,33.5 C178.5,29.0335821 175.688208,25.0529712 171.441668,23.3502223 L170.503711,22.974127 L170.499932,21.9635851 C170.480366,16.732287 166.233155,12.5 161,12.5 C160.654892,12.5 160.312323,12.5183393 159.97318,12.5547217 L158.826803,12.6777021 L158.413081,11.6015332 C156.086366,5.54930509 150.404668,1.5 144,1.5 C136.270023,1.5 129.738705,7.38214797 128.656078,15.2194847 L128.469403,16.5708548 L127.106433,16.5128725 C126.904902,16.5042992 126.70273,16.5 126.5,16.5 C118.768014,16.5 112.5,22.7680135 112.5,30.5 C112.5,37.7273422 118.001917,43.7494412 125.143382,44.4352197 L125.817982,44.5 Z" id="S1B2kveQAG"/>
                </g>
                <g id="S1L2JvemCG_HklOvOU0G" data-animator-group="true" data-animator-type="0"><g id="S1L2JvemCG">
                    <g id="Hyw3yDe70G">
                        <use fill-rule="evenodd" xlink:href="#path-2" id="Sy_2yveXAz"/>
                        <path d="M51.776006,108.5 L150.625292,108.5 L151.33896,108.464805 C166.516822,107.716298 178.5,95.1458425 178.5,79.8630137 C178.5,68.3585834 171.664833,58.1106518 161.315026,53.5953843 L160.460689,53.2226664 L160.416515,52.291614 C159.789214,39.0700664 148.881052,28.6232877 135.614679,28.6232877 C135.057946,28.6232877 134.503526,28.6416155 133.951983,28.6781062 L132.830465,28.752307 L132.444279,27.6967657 C126.734329,12.0900822 111.861265,1.5 94.9908257,1.5 C74.8524234,1.5 57.9405578,16.5358445 55.4328038,36.3681633 L55.2620369,37.7186555 L53.9013582,37.679365 C53.5556879,37.6693835 53.2093413,37.6643836 52.8623853,37.6643836 C33.3327841,37.6643836 17.5,53.5209724 17.5,73.0821918 C17.5,91.8357452 32.0970001,107.309669 50.6960701,108.434678 L51.776006,108.5 Z" id="r1YnJPgmCG"/>
                    </g>
                    <g id="HJ9hJwgXRf">
                        <g id="rki2kvx7Az_Sy0jHdUCG" data-animator-group="true" data-animator-type="2"><g id="rki2kvx7Az">
                            <g id="rkh2kDxXCG">
                                <use fill-rule="evenodd" xlink:href="#path-3" id="Hy631vgQAf"/>
                                <path d="M5.81443147,1.51127581 L1.14286546,37.9494907 L45.8585786,36.0100505 C50.1419364,35.3981423 52.4462085,33.6699382 53.0194193,30.8038839 C53.6015443,27.8932589 52.4564305,25.2775188 49.4601408,22.8491781 L5.81443147,1.51127581 Z" id="SkA2kwgXAf"/>
                            </g>
                            <path d="M42.744337,20.1504835 L43,19 C46.3333333,22.2 47.6666667,25 47,29 C46.3333333,33 43.6666667,36.2 39,37 L39.2361806,35.9371873 C43.0121865,35.1440528 45.3968687,32.5360255 46.0136061,28.835601 C46.5700406,25.4969938 45.6509025,23.0749114 42.744337,20.1504835 Z" id="SyJghyDxX0z" fill-rule="nonzero"/>
                        </g></g>
                        <g id="r1eenyDxXAz_B1kwrdI0G" data-animator-group="true" data-animator-type="2"><g id="r1eenyDxXAz">
                            <use fill-rule="evenodd" xlink:href="#path-4" id="SJbxnyDgQRf"/>
                            <path d="M26.8144315,2.51127581 L22.1428655,38.9494907 L66.8585786,37.0100505 C71.1419364,36.3981423 73.4462085,34.6699382 74.0194193,31.8038839 C74.6015443,28.8932589 73.4564305,26.2775188 70.4601408,23.8491781 L26.8144315,2.51127581 Z" id="S1zlhyPx7CM"/>
                        </g></g>
                        <g id="S1XlhkvlXCM_r1DMH_8RG" data-animator-group="true" data-animator-type="0"><g id="S1XlhkvlXCM">
                            <g id="rJNenJPxmCz">
                                <use fill-rule="evenodd" xlink:href="#path-5" id="S1Se3JDgX0G"/>
                                <circle cx="62" cy="20" r="18.5" id="S1Ie3yvlm0G"/>
                            </g>
                            <g id="BJvxhkwlXAM">
                                <use fill-rule="evenodd" xlink:href="#path-6" id="H1dl3Jwlm0M"/>
                                <circle cx="20" cy="20" r="18.5" id="HkFl31vgmAf"/>
                            </g>
                            <circle id="HJ5lnJPe7AM" cx="20" cy="20" r="14"/>
                            <circle id="HJieh1Plm0f" cx="62" cy="20" r="14"/>
                            <g id="rk3xnJwe70f_rkYqa_U0G" data-animator-group="true" data-animator-type="2"><g id="rk3xnJwe70f">
                                <circle id="S16e21wxQCM" cx="2.5" cy="12.5" r="1.5"/>
                                <path d="M0,2 C0.5,1 1,7.01660952e-14 3,5.68434189e-14 C5,1.15463195e-13 6,1 6,3 C6,5 2.5,6 2.5,7 C2.5,7 2.5,7.66666667 2.5,9" id="HkRg3JDxmCz" stroke-linecap="round" stroke-linejoin="round"/>
                            </g></g>
                            <g id="r1yWnyvemCG_BkSzT_80f" data-animator-group="true" data-animator-type="2"><g id="r1yWnyvemCG">
                                <circle id="Byg-nyPxXAz" cx="2.5" cy="12.5" r="1.5"/>
                                <path d="M0,2 C0.5,1 1,7.01660952e-14 3,5.68434189e-14 C5,1.15463195e-13 6,1 6,3 C6,5 2.5,6 2.5,7 C2.5,7 2.5,7.66666667 2.5,9" id="B1-Zhkwxm0G" stroke-linecap="round" stroke-linejoin="round"/>
                            </g></g>
                        </g></g>
                    </g>
                    <path d="M88,90 C89.6940072,88.6666667 91.3731013,88 93.0372825,88 C94.7014637,88 96.3557029,88.6666667 98,90" id="H1zZh1vemAz" stroke-linecap="round"/>
                </g></g>
                <g id="rJXbnJPe7Af_BJdTt_I0f" data-animator-group="true" data-animator-type="0"><g id="rJXbnJPe7Af">
                    <g id="ByEbnJPxXCM">
                        <use fill-rule="evenodd" xlink:href="#path-7" id="BkSZhyPlQ0M"/>
                        <path d="M23.7930875,71.5 L89.4642246,71.5 L89.9262269,71.4772502 C99.7466666,70.9936757 107.5,62.8725728 107.5,53 C107.5,45.5681478 103.077742,38.947832 96.3809313,36.0306282 L95.5259328,35.6581815 L95.4816688,34.7266347 C95.0775258,26.221349 88.0487756,19.5 79.5,19.5 C79.1410082,19.5 78.783548,19.5117991 78.427977,19.5352887 L77.3071343,19.6093335 L76.9206712,18.5546216 C73.1978927,8.39463763 63.5002756,1.5 52.5,1.5 C39.369143,1.5 28.342308,11.2889187 26.7074274,24.1988086 L26.5364476,25.5489564 L25.176082,25.5097339 C24.9511545,25.5032487 24.7257795,25.5 24.5,25.5 C11.7974508,25.5 1.5,35.7974508 1.5,48.5 C1.5,60.6779676 10.9937625,70.726965 23.09043,71.4575619 L23.7930875,71.5 Z" id="SyU-3kvgXAG"/>
                    </g>
                    <g id="rJDWnkDg70G">
                        <g id="r1d-hkDgX0f_HJ7dF_LAf" data-animator-group="true" data-animator-type="2"><g id="r1d-hkDgX0f">
                            <g id="SJFZ3yDxQ0f">
                                <use fill-rule="evenodd" xlink:href="#path-8" id="ryc-3JPlXAf"/>
                                <path d="M1.96414947,1.37547571 L1.03261798,36.7736725 L44.8038839,28.0194193 C47.7413559,27.4319249 49.4319249,25.7413559 50.0194193,22.8038839 C50.5849551,19.9762048 49.1974882,17.7347042 45.6154225,15.9259 L1.96414947,1.37547571 Z" id="BJiZ2Jvgm0z"/>
                            </g>
                            <path d="M39,13 C42.3333333,16.2 43.6666667,19 43,23 C42.3333333,27 39.6666667,30.2 35,31 L35.2361806,29.9371873 C39.0121865,29.1440528 41.3968687,26.5360255 42.0136061,22.835601 C42.5700406,19.4969938 41.6509025,17.0749114 38.744337,14.1504835 L39,13 Z" id="B12bnJDlQ0M" fill-rule="nonzero"/>
                        </g></g>
                        <g id="ry6Z2JweQAG_Hys-FdLAf" data-animator-group="true" data-animator-type="0"><g id="ry6Z2JweQAG">
                            <g id="HyAZ3yDxXCz">
                                <use fill-rule="evenodd" xlink:href="#path-9" id="Syyz2yPeQCz"/>
                                <circle cx="20" cy="20" r="19" id="HkgGnkDeXAM"/>
                            </g>
                            <circle id="S1WGnkPeQCf" cx="20" cy="20" r="15"/>
                            <g id="HkMfhyvlXCM">
                                <circle id="Hy7M2ywemCM" cx="2.5" cy="12.5" r="1.5"/>
                                <path d="M0,2 C0.5,1 1,7.01660952e-14 3,5.68434189e-14 C5,1.15463195e-13 6,1 6,3 C6,5 2.5,6 2.5,7 C2.5,7 2.5,7.66666667 2.5,9" id="Hy4G2kvg7AG" stroke-linecap="round" stroke-linejoin="round"/>
                            </g>
                        </g></g>
                    </g>
                    <path d="M56,58 C59.0492129,57.3333333 62.0715824,57 65.0671085,57 C68.0626347,57 71.0402652,57.3333333 74,58" id="rJSGnyPl7Af" stroke-linecap="round"/>
                    <path d="M45,38 C48.6691521,40 51.3358188,41 53,41 C54.6641812,41 51.9975145,41.6666667 45,43" id="HyLfh1PlmRG" stroke-linecap="round"/>
                </g></g>
            </g>
        </g>
    </g>
<script>(function(){var a=document.querySelector('#rkh1wxmRz'),b=a.querySelectorAll('style'),c=function(d){b.forEach(function(f){var g=f.textContent;g&amp;&amp;(f.textContent=g.replace(/transform-box:[^;\r\n]*/gi,'transform-box: '+d))})};c('initial'),window.requestAnimationFrame(function(){return c('fill-box')})})();</script></svg>